<svg width="139" height="93" viewBox="0 0 139 93" fill="none" xmlns="http://www.w3.org/2000/svg">
<g clip-path="url(#clip0_1_3470)">
<mask id="mask0_1_3470" style="mask-type:luminance" maskUnits="userSpaceOnUse" x="0" y="0" width="139" height="93">
<path d="M0.137939 0H138.549V92.6063H0.137939V0Z" fill="white"/>
</mask>
<g mask="url(#mask0_1_3470)">
<path d="M0.137939 0H138.549V92.6063H0.137939V0Z" fill="white"/>
</g>
<path d="M70.3767 15.9782C70.1354 15.9782 69.8522 15.9782 69.5345 15.9514C69.6281 16.2008 69.7044 16.4564 69.7635 16.714L69.8596 17.153L69.4336 16.8892C69.1036 16.681 68.7884 16.4584 68.4855 16.2235C68.2639 16.4729 68.0251 16.7099 67.7665 16.9325L67.4956 17.1695L67.4168 16.8501C67.3331 16.512 67.2789 16.1719 67.2543 15.8277C66.8505 15.8937 66.4417 15.939 66.0329 15.9679L65.5084 16.0029L65.8606 15.6793C66.0723 15.4835 66.2989 15.3001 66.5402 15.131C66.0576 14.9084 65.5355 14.6487 65.4444 14.6013C65.1071 14.6528 64.7845 14.7415 64.4767 14.8672C64.1664 14.9929 63.8832 15.1496 63.6271 15.3413C63.3686 15.5309 63.147 15.7453 62.9573 15.9864C62.7702 16.2276 62.6249 16.4832 62.5215 16.7573C61.933 18.4804 63.3957 20.3437 65.7965 20.9147C68.1974 21.4836 70.6082 20.5499 71.1942 18.8267C71.3518 18.3259 71.3592 17.8209 71.2139 17.3159C71.0686 16.8109 70.7904 16.3657 70.3767 15.9782ZM64.2772 15.4382C64.5949 15.1846 64.9741 15.061 65.4149 15.0651C65.5823 15.1187 65.3681 15.3104 65.0061 15.5742C64.6441 15.838 64.2452 16.073 64.0211 16.0565C63.7946 16.038 63.8635 15.737 64.2772 15.4382ZM63.339 18.9153C63.1346 18.6124 63.0041 18.2888 62.9524 17.9445C62.9007 17.6003 62.9303 17.2602 63.0411 16.9243C63.0854 16.7903 63.1445 16.6604 63.2184 16.5347C63.2725 16.4316 63.3612 16.3574 63.4868 16.3121C63.6099 16.2667 63.7355 16.2626 63.8635 16.2977C64.0827 16.3677 64.0827 16.6048 63.9349 16.8418C63.8488 16.982 63.7798 17.1283 63.7256 17.2788C63.5336 17.8518 63.5754 18.4124 63.8512 18.9586C64.2821 19.8491 63.994 19.9109 63.339 18.9153Z" fill="#F64B31"/>
<path d="M69.2044 15.7494C69.7265 15.7927 70.251 15.8112 70.7755 15.803C70.2953 15.5763 69.8004 15.3743 69.2931 15.197C69.6354 15.0032 69.9555 14.7848 70.251 14.5436C69.7807 14.5663 69.3153 14.6137 68.8523 14.6838C68.872 14.4096 68.8572 14.1355 68.8105 13.8634C68.5297 14.0448 68.2712 14.2447 68.0397 14.4694C67.6605 14.1644 67.2591 13.8861 66.8282 13.6326C66.9144 13.9582 67.0326 14.2757 67.1852 14.5828C66.6386 14.5106 66.087 14.4653 65.5354 14.4426C65.9811 14.6838 66.444 14.9043 66.9242 15.1001C66.5967 15.3042 66.2938 15.533 66.0156 15.7844C66.5031 15.7515 66.9858 15.6896 67.4635 15.601C67.466 16.007 67.5201 16.409 67.6211 16.8068C67.9264 16.5347 68.2022 16.242 68.4485 15.9287C68.7981 16.2132 69.1675 16.4749 69.559 16.7181C69.4753 16.3863 69.3547 16.0627 69.2044 15.7494Z" fill="#157A2C"/>
<path d="M45.7275 18.6556C45.7004 18.6144 45.6684 18.5732 45.6339 18.534C44.9198 17.656 42.6716 17.3241 41.4404 17.5508L41.3148 17.0603C42.7627 16.8274 45.0947 17.0994 46.1412 18.2351C46.1905 18.2929 46.2323 18.3485 46.2742 18.4062L45.7497 18.6556H45.7275Z" fill="#157A2C"/>
<path d="M46.321 18.0289C45.8753 17.4106 45.6733 16.7428 45.7177 16.0214C45.6906 15.2917 45.927 14.628 46.4293 14.0303L46.8922 14.3559C46.4835 14.8589 46.2939 15.4174 46.321 16.0255C46.2766 16.6356 46.4392 17.2045 46.8085 17.7321L46.3259 18.0372V18.0125L46.321 18.0289Z" fill="#157A2C"/>
<path d="M45.8655 17.8231C45.4641 17.3036 45.1711 16.743 44.9864 16.1432C44.8017 15.5434 44.7328 14.9333 44.7845 14.3149L45.3829 14.3809C45.2991 15.5207 45.6217 16.574 46.3531 17.5386C46.5057 17.7159 46.6953 17.8622 46.917 17.9776L46.6042 18.4146C46.3087 18.2559 46.0625 18.056 45.8655 17.8148V17.8231Z" fill="#157A2C"/>
<path d="M46.1412 17.8497C45.8457 17.625 45.5847 17.3756 45.3557 17.0994C44.681 16.275 44.159 15.3866 43.7847 14.4385L43.2134 14.6013C43.6049 15.5969 44.1516 16.5264 44.8583 17.3942C45.0898 17.6621 45.3483 17.9115 45.634 18.1383C45.794 18.0332 45.9639 17.9363 46.1412 17.8497Z" fill="#157A2C"/>
<path d="M42.0339 16.0791L42.1792 15.5906C43.6591 15.9162 44.8017 17.1839 45.7399 17.9362L45.3188 18.301C44.3339 17.4951 43.2233 16.314 42.0339 16.0791Z" fill="#157A2C"/>
<path d="M45.3557 17.1696C44.5604 17.6478 44.3067 18.5341 45.1612 19.7749C45.0947 19.6739 45.0307 19.5729 44.979 19.4761C45.6143 19.0803 46.3136 18.7876 47.0745 18.6001C46.4146 18.9484 45.7842 19.3359 45.1883 19.7605C45.2991 19.9233 45.4296 20.0944 45.5774 20.2696C45.5183 20.2036 45.4715 20.1377 45.4198 20.0717C46.0551 19.6739 46.7544 19.3833 47.5153 19.1957C46.8504 19.5461 46.2176 19.9336 45.6192 20.3582L45.8852 20.6468C46.5106 20.2552 47.1976 19.9625 47.9462 19.7708C47.3183 20.1171 46.7175 20.4922 46.1413 20.8962C46.2989 21.059 46.4737 21.2301 46.6658 21.4053L46.4417 21.1868C47.045 20.822 47.7049 20.552 48.4215 20.3788C47.8157 20.7024 47.2297 21.0508 46.6658 21.4239L46.981 21.7165C47.5547 21.3806 48.1777 21.1312 48.8524 20.9663C48.4486 21.2219 47.7517 21.5599 47.2173 21.9371L47.0179 21.7516C47.1927 21.9124 47.3676 22.0752 47.5424 22.238C48.0817 21.935 48.6628 21.7083 49.2858 21.5599C48.909 21.7907 48.286 22.102 47.7714 22.4359C49.5394 23.9838 51.6719 25.5524 52.2629 25.1979C53.1666 24.6537 50.1156 19.8182 48.8155 18.3094C47.5153 16.8027 46.257 16.6255 45.3557 17.1696ZM50.2462 24.3919L50.0467 24.2518C50.384 24.1096 50.7313 23.9962 51.0957 23.9138C50.8593 24.0498 50.5663 24.2126 50.2462 24.3919ZM49.5911 23.922L49.3769 23.7592C49.7783 23.5716 50.2018 23.4253 50.6451 23.3222C50.3717 23.4892 49.9777 23.6767 49.5911 23.922ZM48.9681 23.4356L48.7465 23.2604C49.2021 23.0316 49.6847 22.8564 50.1944 22.7348C49.8842 22.9265 49.4138 23.1676 48.9681 23.4356ZM48.3648 22.945L48.1334 22.7513C48.6333 22.4833 49.1701 22.2813 49.7438 22.1473C49.4015 22.3617 48.8524 22.6379 48.3648 22.945Z" fill="#F68820"/>
<path d="M60.8175 16.9015C60.9751 16.7923 61.1105 16.6665 61.2213 16.5202C61.9699 15.5205 61.3789 14.088 59.9015 13.3109C59.2612 12.9688 58.5619 12.8101 57.8035 12.8389C57.6828 12.4267 57.4464 12.0701 57.0967 11.7651C56.7471 11.46 56.3284 11.2498 55.8433 11.1323C54.4274 10.6933 52.9918 11.0498 52.6299 11.8867V11.93C52.5683 11.93 52.5043 11.93 52.4378 11.93C51.2583 12.0083 50.3398 12.7111 50.4457 13.5006C50.4531 13.5603 50.4678 13.6201 50.4875 13.6799C49.7119 13.7026 49.0889 14.1189 49.0889 14.5909C49.0889 15.065 49.7439 15.5082 50.5442 15.5082C50.6993 15.5205 50.8495 15.5102 50.9997 15.4793C51.1499 15.4484 51.2903 15.3989 51.4183 15.3288C51.5488 15.2608 51.6621 15.1742 51.7582 15.0732C51.8542 14.9743 51.9281 14.863 51.9822 14.7414C52.3861 14.8197 52.7875 14.8094 53.1864 14.7105C53.2578 14.9352 53.3932 15.131 53.5853 15.2979C53.7798 15.4649 54.0113 15.5824 54.2772 15.6483C54.5235 15.7308 54.7771 15.7637 55.0431 15.7431C55.3065 15.7246 55.5503 15.6566 55.7744 15.5391C56.0748 16.1286 56.5525 16.5903 57.2075 16.9242C57.3725 17.0149 57.5474 17.0911 57.7296 17.1571C57.7591 17.4745 57.8749 17.7672 58.0817 18.0331C58.6481 18.7834 59.6897 19.0822 60.4038 18.7009C60.5614 18.5958 60.6919 18.4721 60.7953 18.3278C60.9012 18.1856 60.9702 18.031 61.0096 17.8661C61.0465 17.7012 61.049 17.5343 61.0169 17.3694C60.9849 17.2045 60.9184 17.0478 60.8175 16.9015ZM51.0268 13.7273L50.9652 13.6407C50.9283 13.5253 50.9209 13.4078 50.9382 13.2903C50.9554 13.1728 50.9997 13.0615 51.0687 12.9585C51.1376 12.8534 51.2263 12.7647 51.3346 12.6885C51.4454 12.6143 51.5685 12.5586 51.704 12.5215L51.9231 12.4617C51.7828 12.5092 51.6572 12.5792 51.5464 12.6679C51.438 12.7565 51.3519 12.8596 51.2903 12.977C51.2263 13.0925 51.1918 13.2141 51.1869 13.3419C51.1795 13.4697 51.2016 13.5933 51.2534 13.7149L51.3198 13.8159C51.3789 13.8984 51.4528 13.9726 51.5415 14.0344C51.3198 13.9911 51.1499 13.8881 51.0268 13.7273ZM53.0042 13.1007C52.9204 12.909 52.9007 12.7153 52.9426 12.5153C52.982 12.3154 53.0805 12.1361 53.2332 11.9794C53.4745 11.7197 53.7774 11.526 54.1393 11.4002C54.2526 11.3611 54.3683 11.3302 54.4865 11.3075C54.0605 11.4703 53.7404 11.7259 53.5262 12.0742C53.2849 12.4535 53.2602 12.8431 53.4474 13.2409C53.5484 13.4367 53.6961 13.6036 53.8882 13.7417C53.4646 13.651 53.1691 13.4387 53.0042 13.1007ZM53.6641 14.9084C53.6124 14.8053 53.5927 14.7002 53.605 14.5909C53.6493 14.3271 53.8143 14.1334 54.0975 14.0076L54.2181 13.9602C54.2797 13.9417 54.3388 13.9272 54.4028 13.9169C54.3166 13.9478 54.2403 13.9891 54.1713 14.0385C54.0014 14.154 53.8931 14.3003 53.8463 14.4776C53.802 14.6507 53.8217 14.8177 53.9103 14.9784C53.9719 15.0918 54.0581 15.1928 54.1713 15.2752C53.9374 15.2155 53.7675 15.0918 53.6641 14.9084ZM56.7249 14.626C56.5525 14.863 56.454 15.1186 56.4245 15.3948C56.2595 15.0197 56.2767 14.6528 56.4737 14.29C56.4984 14.2447 56.5205 14.1973 56.5525 14.154C56.8259 13.8077 57.2075 13.6016 57.7 13.5356C58.3501 13.447 58.9534 13.5521 59.5075 13.851C59.638 13.919 59.7586 13.9953 59.8744 14.0798C59.6207 13.9437 59.3474 13.8551 59.0519 13.8098C58.7564 13.7644 58.4634 13.7665 58.1704 13.8159C57.8749 13.8675 57.604 13.9623 57.3528 14.1004C57.1041 14.2385 56.8948 14.4116 56.7249 14.6177V14.626ZM58.7219 16.4996C58.6037 16.5758 58.5077 16.6686 58.4388 16.7799C58.456 16.5738 58.5619 16.4089 58.7515 16.279C58.85 16.2234 58.9583 16.1863 59.0765 16.1677C59.1923 16.1492 59.3105 16.1492 59.4262 16.1698C59.5419 16.1925 59.6478 16.2316 59.7463 16.2893C59.8424 16.3471 59.9212 16.4192 59.9852 16.5037C60.0197 16.547 60.0517 16.5944 60.0788 16.6439C60.0024 16.5573 59.9064 16.4872 59.7956 16.4336C59.6848 16.378 59.5641 16.345 59.4361 16.3306C59.308 16.3182 59.1824 16.3264 59.0593 16.3553C58.9337 16.3842 58.8229 16.4316 58.7219 16.4996ZM57.4956 17.1695C56.7914 17.2808 56.1413 17.5034 55.5454 17.8352C54.9495 18.1691 54.457 18.5875 54.0679 19.0905C54.585 18.0867 54.7722 17.0417 54.6269 15.9554C54.4841 15.9389 54.3413 15.9101 54.2034 15.873C54.0187 15.8173 53.8438 15.7431 53.6789 15.6524C53.5385 16.3594 53.3538 17.0478 53.1544 17.7672C53.0608 16.8273 52.6594 15.9946 51.9502 15.2629C51.8025 15.403 51.6276 15.5123 51.4257 15.5906C53.0239 17.2622 52.5412 19.7356 51.6991 20.5889L54.9273 21.5598C55.112 20.8404 55.4518 20.1788 55.9468 19.5728C56.4393 18.9647 57.0524 18.4577 57.7838 18.0516C57.6065 17.7754 57.508 17.4828 57.4883 17.1695H57.4956Z" fill="#157A2C"/>
<path d="M39.8053 20.0203C38.9903 20.0203 38.1777 20.0677 37.37 20.1625C36.5623 20.2573 35.7645 20.3995 34.9814 20.5871C34.1959 20.7747 33.4325 21.0096 32.6864 21.2858C31.9428 21.5641 31.2237 21.8836 30.5318 22.2463C29.8398 22.6091 29.1824 23.009 28.5569 23.448C27.9314 23.887 27.3478 24.3611 26.8012 24.8681C26.257 25.3772 25.7571 25.9131 25.3015 26.48C24.846 27.0468 24.4397 27.6363 24.0826 28.2505C23.9201 28.5308 24.8829 28.8153 24.7426 29.1265H55.9861C55.6585 28.4587 55.2769 27.8135 54.8361 27.1911C54.3953 26.5707 53.9028 25.9791 53.3586 25.4185C52.8144 24.8578 52.2234 24.3343 51.5857 23.8479C50.9479 23.3594 50.2707 22.9141 49.5541 22.5122C48.8376 22.1082 48.089 21.7516 47.3109 21.4404C46.5303 21.1292 45.7275 20.8695 44.9026 20.6592C44.0752 20.4469 43.2355 20.2882 42.3811 20.181C41.529 20.0739 40.6697 20.0203 39.8053 20.0203Z" fill="#A4C52C"/>
<path d="M39.8054 22.6111C39.1504 22.6111 38.4979 22.6482 37.8478 22.7224C37.1977 22.7987 36.5575 22.91 35.9271 23.0584C35.2943 23.2047 34.6786 23.3881 34.0778 23.6066C33.477 23.8272 32.8958 24.0786 32.3344 24.3631C31.7754 24.6475 31.2411 24.9649 30.7338 25.3112C30.2241 25.6575 29.7464 26.0306 29.2982 26.4325C28.8525 26.8324 28.4388 27.257 28.0621 27.7063C27.6853 28.1536 27.3455 28.6215 27.0426 29.11H52.5683C52.2679 28.6215 51.9281 28.1536 51.5488 27.7063C51.1721 27.257 50.7584 26.8324 50.3127 26.4325C49.8645 26.0306 49.3868 25.6575 48.8771 25.3112C48.3698 24.9649 47.8355 24.6496 47.2765 24.3631C46.7151 24.0786 46.1339 23.8272 45.5331 23.6087C44.9323 23.3902 44.3166 23.2068 43.6838 23.0584C43.0534 22.91 42.4132 22.7987 41.7631 22.7244C41.113 22.6482 40.4605 22.6111 39.8054 22.6111Z" fill="#57A52C"/>
<path d="M39.8054 22.8006C40.4456 22.8006 41.0834 22.8377 41.7162 22.9099C42.3515 22.9841 42.9745 23.0913 43.5926 23.2355C44.2082 23.3798 44.809 23.5571 45.3976 23.7694C45.9861 23.9817 46.5525 24.227 47.1016 24.5032C47.6482 24.7794 48.1703 25.0865 48.6702 25.4225C49.1676 25.7584 49.6354 26.1212 50.0762 26.5087C50.5145 26.8982 50.9208 27.3105 51.2927 27.7454C51.6669 28.1824 52.0018 28.6358 52.2998 29.1099H52.8243C52.5214 28.609 52.1767 28.1267 51.795 27.6671C51.4109 27.2054 50.9922 26.7684 50.5391 26.3562C50.0836 25.9439 49.596 25.5585 49.0789 25.2019C48.5593 24.8453 48.0151 24.5197 47.4439 24.227C46.8701 23.9322 46.2791 23.6725 45.6635 23.4478C45.0479 23.2232 44.4175 23.0336 43.7724 22.881C43.1272 22.7285 42.4722 22.6131 41.8073 22.5368C41.1425 22.4585 40.4751 22.4214 39.8029 22.4214C39.1331 22.4214 38.4633 22.4585 37.7985 22.5368C37.1336 22.6131 36.4786 22.7285 35.8334 22.881C35.1883 23.0336 34.5579 23.2232 33.9423 23.4478C33.3291 23.6725 32.7357 23.9322 32.1619 24.227C31.5906 24.5197 31.0464 24.8453 30.5269 25.2019C30.0098 25.5585 29.5222 25.9439 29.0691 26.3562C28.6136 26.7684 28.1949 27.2054 27.8108 27.6671C27.4291 28.1267 27.0844 28.609 26.7815 29.1099H27.306C27.604 28.6358 27.9413 28.1803 28.3131 27.7454C28.685 27.3105 29.0913 26.8982 29.532 26.5087C29.9704 26.1191 30.4407 25.7564 30.9381 25.4204C31.4355 25.0844 31.96 24.7794 32.5091 24.5011C33.0558 24.2249 33.6246 23.9817 34.2107 23.7694C34.7992 23.5571 35.4025 23.3778 36.0181 23.2355C36.6337 23.0913 37.2592 22.982 37.8945 22.9099C38.5273 22.8377 39.1651 22.8006 39.8054 22.8006Z" fill="white"/>
<path d="M39.8054 25.2371C38.9214 25.2371 38.0472 25.3236 37.1878 25.4968C36.326 25.6699 35.5011 25.9234 34.7131 26.2615C33.9251 26.5974 33.1937 27.0055 32.5215 27.4879C31.8493 27.9702 31.2533 28.5102 30.7338 29.11H48.877C48.3599 28.5102 47.7616 27.9702 47.0893 27.4879C46.4171 27.0055 45.6882 26.5974 44.8977 26.2615C44.1098 25.9234 43.2848 25.6699 42.4254 25.4968C41.5636 25.3236 40.6919 25.2371 39.8054 25.2371Z" fill="#157A2C"/>
<path d="M39.8054 25.4308C40.6574 25.4329 41.4971 25.5153 42.3245 25.6802C43.1543 25.8451 43.9472 26.0862 44.7081 26.4037C45.4715 26.7231 46.1782 27.1106 46.8308 27.5662C47.4858 28.0237 48.0669 28.5349 48.5791 29.1059H49.1725C48.9091 28.7926 48.6234 28.4937 48.3181 28.2093C48.0103 27.9248 47.6852 27.6569 47.3405 27.4033C46.9957 27.1519 46.6362 26.919 46.257 26.7025C45.8778 26.4882 45.4863 26.2903 45.08 26.1151C44.6737 25.9378 44.2575 25.7833 43.829 25.6493C43.4006 25.5132 42.9647 25.4019 42.519 25.3112C42.0758 25.2206 41.6252 25.1525 41.1721 25.1051C40.7165 25.0598 40.261 25.0371 39.8029 25.0371C39.3449 25.0371 38.8894 25.0598 38.4363 25.1051C37.9807 25.1525 37.5326 25.2206 37.0869 25.3112C36.6412 25.4019 36.2053 25.5132 35.7769 25.6493C35.3484 25.7833 34.9322 25.9378 34.5259 26.1151C34.1196 26.2903 33.7281 26.4882 33.3489 26.7025C32.9721 26.919 32.6101 27.1519 32.2654 27.4033C31.9207 27.6569 31.5956 27.9248 31.2878 28.2093C30.9825 28.4937 30.6968 28.7926 30.4333 29.1059H31.0317C31.5414 28.5349 32.125 28.0217 32.7776 27.5641C33.4326 27.1086 34.1393 26.7211 34.9002 26.4016C35.6611 26.0821 36.4565 25.841 37.2863 25.6781C38.1137 25.5132 38.9534 25.4308 39.8054 25.4308Z" fill="white"/>
<path d="M39.8054 27.4693C38.8106 27.4672 37.8428 27.6074 36.9071 27.8897C35.9689 28.1701 35.1169 28.5782 34.3486 29.11H45.2622C44.4939 28.5782 43.6419 28.1721 42.7062 27.8897C41.768 27.6074 40.8027 27.4672 39.8054 27.4693Z" fill="#005B0F"/>
<path d="M39.8054 27.663C40.7214 27.663 41.6129 27.7867 42.4772 28.034C43.344 28.2814 44.1393 28.64 44.8633 29.1099H45.6192C45.2203 28.8152 44.7968 28.5555 44.3437 28.3267C43.8882 28.0979 43.4154 27.9042 42.9204 27.7475C42.423 27.5909 41.9157 27.4713 41.3937 27.393C40.8741 27.3126 40.3496 27.2734 39.8177 27.2734C39.2883 27.2734 38.7638 27.3126 38.2418 27.393C37.7222 27.4713 37.2149 27.5909 36.7175 27.7475C36.2226 27.9042 35.7498 28.0979 35.2942 28.3267C34.8411 28.5555 34.4176 28.8152 34.0187 29.1099H34.7574C35.4814 28.6421 36.2743 28.2855 37.1386 28.0381C38.0029 27.7887 38.8919 27.6651 39.8054 27.663Z" fill="white"/>
<path d="M82.7725 34.8131C82.7627 34.2833 82.7208 33.7557 82.6494 33.2301C82.578 32.7045 82.477 32.183 82.344 31.6656C82.2111 31.1483 82.0485 30.6371 81.8565 30.1321C81.6669 29.6271 81.4452 29.1325 81.1965 28.646C80.9478 28.1596 80.6696 27.6835 80.3642 27.2197C80.0614 26.7559 79.7289 26.3066 79.3743 25.8676C79.0173 25.4306 78.6356 25.0101 78.2293 24.6041C77.823 24.198 77.3945 23.8085 76.9439 23.4375C76.4933 23.0664 76.0205 22.714 75.528 22.3821C75.038 22.0482 74.5258 21.737 73.9988 21.4464C73.4694 21.1537 72.9277 20.8857 72.3662 20.6384C71.8072 20.391 71.236 20.1664 70.6499 19.9664C70.0638 19.7665 69.4679 19.5892 68.8622 19.4367C68.2564 19.2863 67.6433 19.1585 67.0227 19.0554C66.3997 18.9544 65.7743 18.8761 65.1463 18.8246C64.516 18.7751 63.8856 18.7483 63.2527 18.7483C62.6199 18.7483 61.987 18.7751 61.3591 18.8246C60.7287 18.8761 60.1033 18.9544 59.4827 19.0554C58.8622 19.1585 58.249 19.2863 57.6433 19.4367C57.035 19.5892 56.4391 19.7665 55.8555 19.9664C55.2695 20.1664 54.6957 20.391 54.1368 20.6384C53.5778 20.8857 53.0336 21.1537 52.5066 21.4464C51.9772 21.737 51.4675 22.0482 50.975 22.3821C50.4825 22.714 50.0122 23.0664 49.5615 23.4375C49.1084 23.8085 48.68 24.198 48.2761 24.6041C47.8698 25.0101 47.4882 25.4306 47.1311 25.8676C46.774 26.3066 46.4441 26.7559 46.1387 27.2197C45.8334 27.6835 45.5576 28.1596 45.3089 28.646C45.0577 29.1325 44.8386 29.6271 44.6465 30.1321C44.4544 30.6371 44.2919 31.1483 44.1614 31.6656C44.0284 32.183 43.925 32.7045 43.8536 33.2301C43.7822 33.7557 43.7428 34.2833 43.7305 34.8131C43.7305 35.1119 43.7305 35.4087 43.7625 35.6911H82.7405C82.7627 35.4087 82.7725 35.1119 82.7725 34.8131Z" fill="#A4C52C"/>
<path d="M43.994 34.8132C44.0038 34.2917 44.0432 33.7702 44.1146 33.2529C44.1861 32.7334 44.287 32.2182 44.4175 31.707C44.548 31.1979 44.7081 30.6929 44.8977 30.1961C45.0848 29.6973 45.304 29.2088 45.5502 28.7286C45.7965 28.2504 46.0698 27.7805 46.3702 27.3229C46.6707 26.8653 46.9957 26.4201 47.3478 25.9893C47.7 25.5585 48.0767 25.1422 48.4781 24.7423C48.877 24.3424 49.3005 23.959 49.7463 23.5922C50.1895 23.2253 50.6549 22.879 51.14 22.5492C51.6251 22.2215 52.1299 21.9144 52.6495 21.6258C53.1715 21.3393 53.7083 21.0734 54.2599 20.8302C54.8115 20.587 55.3779 20.3644 55.9541 20.1665C56.5327 19.9686 57.1188 19.7955 57.7172 19.645C58.3156 19.4945 58.9213 19.3709 59.5345 19.2699C60.1451 19.1689 60.7632 19.0926 61.3838 19.0411C62.0043 18.9916 62.6273 18.9669 63.2528 18.9669C63.8758 18.9669 64.4987 18.9916 65.1193 19.0411C65.7423 19.0926 66.3579 19.1689 66.971 19.2699C67.5842 19.3709 68.1875 19.4945 68.7859 19.645C69.3842 19.7955 69.9728 19.9686 70.549 20.1665C71.1276 20.3644 71.6915 20.587 72.2431 20.8302C72.7972 21.0734 73.3315 21.3393 73.8536 21.6258C74.3756 21.9144 74.8779 22.2215 75.3631 22.5492C75.8482 22.879 76.3136 23.2253 76.7593 23.5922C77.205 23.959 77.626 24.3424 78.0274 24.7423C78.4288 25.1422 78.8031 25.5585 79.1552 25.9893C79.5073 26.4201 79.8348 26.8653 80.1353 27.3229C80.4357 27.7805 80.709 28.2504 80.9553 28.7286C81.2015 29.2088 81.4182 29.6973 81.6078 30.1961C81.7974 30.6929 81.9575 31.1979 82.088 31.707C82.2185 32.2182 82.3195 32.7334 82.3884 33.2529C82.4598 33.7702 82.4992 34.2917 82.5115 34.8132C82.5115 35.112 82.5115 35.4088 82.4795 35.6912H83.004C83.004 35.3965 83.036 35.0976 83.036 34.8132C83.0237 34.2773 82.9818 33.7434 82.9104 33.2096C82.8366 32.6757 82.7356 32.1481 82.6002 31.6225C82.4672 31.0989 82.3022 30.5795 82.1077 30.0684C81.9132 29.5572 81.6891 29.0563 81.4379 28.5616C81.1843 28.069 80.9035 27.5888 80.5957 27.1168C80.2879 26.6468 79.953 26.1913 79.5911 25.7481C79.2291 25.305 78.8425 24.8783 78.4313 24.4661C78.02 24.0539 77.5842 23.6602 77.1286 23.285C76.6706 22.9078 76.1929 22.5513 75.6955 22.2132C75.1956 21.8773 74.6785 21.5598 74.1441 21.2651C73.6073 20.9703 73.0582 20.6962 72.4894 20.4468C71.923 20.1953 71.3419 19.9686 70.7484 19.7646C70.155 19.5626 69.5517 19.3832 68.9385 19.2287C68.3229 19.0761 67.7024 18.9463 67.072 18.8432C66.4441 18.7381 65.8088 18.6618 65.171 18.6082C64.5332 18.5567 63.893 18.532 63.2528 18.532C62.6101 18.532 61.9698 18.5567 61.332 18.6082C60.6943 18.6618 60.0614 18.7381 59.431 18.8432C58.8031 18.9463 58.1801 19.0761 57.567 19.2287C56.9514 19.3832 56.3481 19.5626 55.7546 19.7646C55.1612 19.9686 54.58 20.1953 54.0137 20.4468C53.4473 20.6962 52.8957 20.9703 52.3614 21.2651C51.8246 21.5598 51.3074 21.8773 50.81 22.2132C50.3102 22.5513 49.8324 22.9078 49.3769 23.285C48.9189 23.6602 48.4855 24.0539 48.0743 24.4661C47.663 24.8783 47.2764 25.305 46.9144 25.7481C46.5525 26.1913 46.2176 26.6468 45.9073 27.1168C45.5995 27.5888 45.3188 28.069 45.0676 28.5616C44.814 29.0563 44.5899 29.5572 44.3954 30.0684C44.2008 30.5795 44.0383 31.0989 43.9029 31.6225C43.7699 32.1481 43.6665 32.6757 43.5926 33.2096C43.5212 33.7434 43.4793 34.2773 43.4695 34.8132C43.4695 35.112 43.4695 35.4088 43.5015 35.6912H44.026C44.0038 35.4088 43.994 35.112 43.994 34.8132Z" fill="white"/>
<path d="M79.308 34.8131C79.308 34.3741 79.2833 33.9351 79.2316 33.496C79.1799 33.0591 79.1036 32.6242 79.0002 32.1934C78.8967 31.7605 78.7687 31.3339 78.616 30.9134C78.4633 30.4929 78.2885 30.0786 78.0866 29.6726C77.8847 29.2665 77.6606 28.8687 77.4119 28.4812C77.1632 28.0916 76.8948 27.7165 76.6017 27.3496C76.3087 26.9848 75.996 26.6303 75.6635 26.2902C75.3287 25.9501 74.9765 25.6244 74.6047 25.3132C74.2329 25.002 73.8438 24.7072 73.4375 24.4289C73.0312 24.1486 72.6077 23.8869 72.1718 23.6436C71.7335 23.3984 71.2829 23.1737 70.8199 22.9655C70.357 22.7573 69.8817 22.5698 69.3942 22.4008C68.9091 22.2338 68.4141 22.0854 67.9118 21.9576C67.407 21.8298 66.8972 21.7226 66.3826 21.6381C65.8655 21.5516 65.3459 21.4877 64.8239 21.4444C64.2994 21.4011 63.7749 21.3784 63.2504 21.3784C62.7234 21.3784 62.1989 21.4011 61.6744 21.4444C61.1524 21.4877 60.6328 21.5516 60.1157 21.6381C59.601 21.7226 59.0913 21.8298 58.589 21.9576C58.0842 22.0854 57.5892 22.2338 57.1041 22.4008C56.619 22.5698 56.1438 22.7573 55.6784 22.9655C55.2154 23.1737 54.7648 23.3984 54.3265 23.6436C53.8906 23.8869 53.4695 24.1486 53.0608 24.4289C52.6545 24.7072 52.2654 25.002 51.8936 25.3132C51.5217 25.6244 51.1696 25.9501 50.8347 26.2902C50.5023 26.6303 50.1896 26.9848 49.8965 27.3496C49.606 27.7165 49.3351 28.0916 49.0864 28.4812C48.8377 28.8687 48.6136 29.2665 48.4141 29.6726C48.2122 30.0786 48.0349 30.4929 47.8823 30.9134C47.7296 31.3339 47.6015 31.7605 47.4981 32.1934C47.3972 32.6242 47.3184 33.0591 47.2691 33.496C47.2174 33.9351 47.1903 34.3741 47.1903 34.8131C47.1903 35.112 47.1903 35.4088 47.2272 35.6912H79.2661C79.2932 35.4088 79.308 35.112 79.308 34.8131Z" fill="#57A52C"/>
<path d="M47.4586 34.8133C47.4488 34.3763 47.4636 33.9393 47.5079 33.5024C47.5497 33.0654 47.6187 32.6325 47.7123 32.2018C47.8058 31.771 47.924 31.3443 48.0693 30.9238C48.2146 30.5034 48.382 30.0891 48.5766 29.683C48.7711 29.277 48.9878 28.8792 49.2291 28.4896C49.468 28.1021 49.7315 27.7228 50.0196 27.356C50.3052 26.9891 50.6106 26.6366 50.9381 26.2944C51.2656 25.9523 51.6152 25.6266 51.9797 25.3133C52.3466 25.0021 52.7307 24.7053 53.1346 24.425C53.5359 24.1446 53.9521 23.8808 54.3855 23.6355C54.8189 23.3903 55.267 23.1615 55.725 22.9533C56.1855 22.7451 56.6583 22.5555 57.141 22.3865C57.6236 22.2175 58.1136 22.0691 58.616 21.9392C59.1158 21.8114 59.6231 21.7042 60.1353 21.6177C60.6475 21.5311 61.1646 21.4672 61.6866 21.4239C62.2062 21.3786 62.7282 21.3579 63.2527 21.3579C63.7748 21.3579 64.2968 21.3786 64.8188 21.4239C65.3384 21.4672 65.8555 21.5311 66.3702 21.6177C66.8824 21.7042 67.3896 21.8114 67.8895 21.9392C68.3894 22.0691 68.8819 22.2175 69.3645 22.3865C69.8472 22.5555 70.3175 22.7451 70.778 22.9533C71.2384 23.1615 71.6841 23.3903 72.1175 23.6355C72.5509 23.8808 72.9695 24.1446 73.3709 24.425C73.7723 24.7053 74.1564 25.0021 74.5233 25.3133C74.8902 25.6266 75.2374 25.9523 75.5649 26.2944C75.8925 26.6366 76.2003 26.9891 76.4859 27.356C76.7715 27.7228 77.035 28.1021 77.2763 28.4896C77.5177 28.8792 77.7344 29.277 77.9264 29.683C78.121 30.0891 78.2909 30.5034 78.4337 30.9238C78.579 31.3443 78.6996 31.771 78.7932 32.2018C78.8868 32.6325 78.9557 33.0654 78.9976 33.5024C79.0395 33.9393 79.0567 34.3763 79.0468 34.8133C79.0468 35.1121 79.0468 35.4089 79.005 35.6913H79.5295C79.5295 35.3966 79.564 35.0977 79.564 34.8133C79.5738 34.3619 79.5566 33.9105 79.5147 33.4591C79.4704 33.0077 79.399 32.5604 79.3029 32.1152C79.2044 31.67 79.0813 31.231 78.9311 30.796C78.7834 30.3611 78.6085 29.9345 78.4091 29.514C78.2072 29.0935 77.9831 28.6833 77.7344 28.2814C77.4857 27.8795 77.2123 27.4899 76.9168 27.1107C76.6238 26.7314 76.3061 26.3666 75.9663 26.0141C75.629 25.6617 75.2695 25.3236 74.8902 25.0021C74.511 24.6785 74.1146 24.3734 73.6984 24.0828C73.2847 23.7922 72.8538 23.5222 72.4056 23.2687C71.9575 23.0131 71.497 22.7802 71.0217 22.5637C70.5465 22.3494 70.0589 22.1536 69.5591 21.9784C69.0616 21.8032 68.5544 21.6486 68.0373 21.5167C67.5201 21.3847 66.9956 21.2734 66.4662 21.1827C65.9368 21.0941 65.4024 21.0282 64.8656 20.9828C64.3264 20.9375 63.7871 20.9148 63.2478 20.9148C62.7061 20.9148 62.1668 20.9375 61.63 20.9828C61.0907 21.0282 60.5564 21.0941 60.0269 21.1827C59.4975 21.2734 58.973 21.3847 58.4559 21.5167C57.9388 21.6486 57.4315 21.8032 56.9341 21.9784C56.4342 22.1536 55.9491 22.3494 55.4714 22.5637C54.9962 22.7802 54.5357 23.0131 54.0875 23.2687C53.6418 23.5222 53.2084 23.7922 52.7947 24.0828C52.3786 24.3734 51.9821 24.6785 51.6029 25.0021C51.2237 25.3236 50.8666 25.6617 50.5268 26.0141C50.187 26.3666 49.8718 26.7314 49.5763 27.1107C49.2808 27.4899 49.0075 27.8795 48.7588 28.2814C48.5101 28.6833 48.286 29.0935 48.0865 29.514C47.8846 29.9345 47.7098 30.3611 47.562 30.796C47.4118 31.231 47.2887 31.67 47.1927 32.1152C47.0942 32.5604 47.0228 33.0077 46.9809 33.4591C46.9366 33.9105 46.9194 34.3619 46.9292 34.8133C46.9292 35.1121 46.9292 35.4089 46.9661 35.6913H47.4882C47.4734 35.4089 47.4586 35.1121 47.4586 34.8133Z" fill="white"/>
<path d="M75.8063 34.8133C75.7841 34.4835 75.7398 34.1537 75.6783 33.828C75.6167 33.5003 75.5379 33.1767 75.4394 32.8552C75.3409 32.5336 75.2252 32.2183 75.0922 31.905C74.9592 31.5937 74.809 31.2887 74.6391 30.9877C74.4717 30.6889 74.287 30.3962 74.0851 30.1117C73.8856 29.8252 73.6689 29.549 73.435 29.2811C73.2035 29.0131 72.9573 28.7534 72.6938 28.5061C72.4328 28.2567 72.1594 28.0197 71.8713 27.7929C71.5808 27.5662 71.2803 27.3498 70.9676 27.1478C70.6549 26.9437 70.3323 26.7541 69.9974 26.5768C69.665 26.3996 69.3202 26.2347 68.9681 26.0842C68.616 25.9337 68.2565 25.7977 67.8871 25.6761C67.5202 25.5524 67.1459 25.4453 66.7642 25.3525C66.385 25.2618 66.0009 25.1835 65.6118 25.1216C65.2227 25.0598 64.8312 25.0124 64.4372 24.9815C64.0432 24.9506 63.6468 24.9341 63.2528 24.9341C62.8563 24.9341 62.4623 24.9506 62.0659 24.9815C61.6719 25.0124 61.2804 25.0598 60.8938 25.1216C60.5047 25.1835 60.1181 25.2618 59.7389 25.3525C59.3597 25.4453 58.9854 25.5524 58.616 25.6761C58.2491 25.7977 57.8896 25.9337 57.535 26.0842C57.1829 26.2347 56.8406 26.3996 56.5057 26.5768C56.1708 26.7541 55.8482 26.9437 55.5355 27.1478C55.2227 27.3498 54.9223 27.5662 54.6342 27.7929C54.3461 28.0197 54.0703 28.2567 53.8093 28.5061C53.5483 28.7534 53.2996 29.0131 53.0681 29.2811C52.8366 29.549 52.6199 29.8252 52.418 30.1117C52.2161 30.3962 52.0314 30.6889 51.864 30.9877C51.6965 31.2887 51.5439 31.5937 51.4109 31.905C51.2779 32.2183 51.1622 32.5336 51.0637 32.8552C50.9652 33.1767 50.8864 33.5003 50.8248 33.828C50.7633 34.1537 50.7214 34.4835 50.6968 34.8133C50.6968 35.1163 50.6968 35.409 50.7485 35.6913H75.7546C75.7866 35.409 75.8063 35.1163 75.8063 34.8133Z" fill="#157A2C"/>
<path d="M50.9578 34.8133C50.9677 34.4814 50.9948 34.1496 51.0416 33.8198C51.0883 33.49 51.1524 33.1623 51.2385 32.8366C51.3223 32.513 51.4257 32.1915 51.5464 31.8761C51.6695 31.5587 51.8098 31.2474 51.9674 30.9424C52.125 30.6373 52.2999 30.3405 52.4919 30.0478C52.684 29.7572 52.8933 29.4748 53.1174 29.2007C53.3415 28.9266 53.5828 28.6627 53.8389 28.4092C54.095 28.1536 54.3634 27.9104 54.649 27.6775C54.9322 27.4446 55.2277 27.224 55.538 27.0159C55.8482 26.8077 56.1684 26.6119 56.5008 26.4284C56.8332 26.247 57.1755 26.078 57.5252 25.9234C57.8773 25.7689 58.2368 25.6287 58.6062 25.503C58.9731 25.3772 59.3474 25.2659 59.7291 25.1711C60.1083 25.0763 60.4949 24.9959 60.8839 24.932C61.2755 24.8681 61.667 24.8207 62.0634 24.7877C62.4574 24.7568 62.8539 24.7403 63.2528 24.7403C63.6493 24.7403 64.0457 24.7568 64.4422 24.7877C64.8362 24.8207 65.2302 24.8681 65.6192 24.932C66.0107 24.9959 66.3949 25.0763 66.7766 25.1711C67.1558 25.2659 67.5301 25.3772 67.8994 25.503C68.2663 25.6287 68.6259 25.7689 68.978 25.9234C69.3301 26.078 69.6724 26.247 70.0048 26.4284C70.3373 26.6119 70.6574 26.8077 70.9652 27.0159C71.2754 27.224 71.5734 27.4446 71.8566 27.6775C72.1398 27.9104 72.4106 28.1536 72.6667 28.4092C72.9204 28.6627 73.1617 28.9266 73.3858 29.2007C73.6123 29.4748 73.8192 29.7572 74.0137 30.0478C74.2058 30.3405 74.3806 30.6373 74.5382 30.9424C74.6958 31.2474 74.8361 31.5587 74.9568 31.8761C75.0775 32.1915 75.1809 32.513 75.2671 32.8366C75.3508 33.1623 75.4173 33.49 75.4641 33.8198C75.5109 34.1496 75.5379 34.4814 75.5453 34.8133C75.5453 35.1163 75.5453 35.4089 75.4936 35.6913H76.0181C76.0477 35.3966 76.0698 35.1039 76.0698 34.8133C76.06 34.467 76.0329 34.1207 75.9836 33.7765C75.9369 33.4323 75.8679 33.0922 75.7793 32.7521C75.6906 32.4141 75.5847 32.0802 75.4567 31.7483C75.3311 31.4185 75.1858 31.0949 75.0208 30.7775C74.8558 30.458 74.6736 30.1468 74.4742 29.8438C74.2722 29.5408 74.0555 29.246 73.8216 28.9595C73.5852 28.6751 73.3365 28.3989 73.0681 28.133C72.8022 27.8671 72.5214 27.6136 72.226 27.3704C71.928 27.1272 71.6202 26.8984 71.2976 26.6799C70.975 26.4635 70.6401 26.2594 70.2929 26.0677C69.9482 25.8781 69.5911 25.7029 69.2242 25.5401C68.8573 25.3793 68.483 25.2329 68.0989 25.101C67.7148 24.9712 67.3232 24.8558 66.9268 24.7568C66.5303 24.6558 66.1289 24.5734 65.7202 24.5074C65.3139 24.4394 64.9051 24.3899 64.4914 24.3569C64.0802 24.3219 63.6665 24.3054 63.2528 24.3054C62.8367 24.3054 62.423 24.3219 62.0117 24.3569C61.598 24.3899 61.1893 24.4394 60.783 24.5074C60.3767 24.5734 59.9753 24.6558 59.5764 24.7568C59.1799 24.8558 58.7909 24.9712 58.4067 25.101C58.0226 25.2329 57.6483 25.3793 57.2814 25.5401C56.9145 25.7029 56.5574 25.8781 56.2102 26.0677C55.8655 26.2594 55.5306 26.4635 55.208 26.6799C54.8854 26.8984 54.5752 27.1272 54.2797 27.3704C53.9842 27.6136 53.701 27.8671 53.435 28.133C53.1691 28.3989 52.9179 28.6751 52.684 28.9595C52.4501 29.246 52.2309 29.5408 52.0315 29.8438C51.8295 30.1468 51.6473 30.458 51.4848 30.7775C51.3198 31.0949 51.1745 31.4185 51.0465 31.7483C50.9209 32.0802 50.8125 32.4141 50.7239 32.7521C50.6377 33.0922 50.5688 33.4323 50.5195 33.7765C50.4727 34.1207 50.4432 34.467 50.4358 34.8133C50.4358 35.1163 50.4358 35.4089 50.4826 35.6913H51.0071C50.98 35.4089 50.9578 35.1163 50.9578 34.8133Z" fill="white"/>
<path d="M72.8242 34.8132C72.8242 34.2876 72.7627 33.7661 72.642 33.2508C72.5189 32.7355 72.3367 32.2347 72.0954 31.7482C71.8565 31.2618 71.561 30.8001 71.2113 30.3631C70.8617 29.9261 70.4652 29.5201 70.0195 29.1491C69.5763 28.7781 69.0912 28.4442 68.5691 28.1535C68.0471 27.8608 67.4955 27.6135 66.9144 27.4136C66.3332 27.2116 65.7349 27.0591 65.1168 26.956C64.5012 26.855 63.8782 26.8035 63.2503 26.8035C62.6199 26.8035 61.9969 26.855 61.3813 26.956C60.7657 27.0591 60.1648 27.2116 59.5862 27.4136C59.005 27.6135 58.4534 27.8608 57.9289 28.1535C57.4069 28.4442 56.9243 28.7781 56.4786 29.1491C56.0328 29.5201 55.6364 29.9261 55.2867 30.3631C54.9371 30.8001 54.644 31.2618 54.4027 31.7482C54.1614 32.2347 53.9816 32.7355 53.8585 33.2508C53.7354 33.7661 53.6738 34.2876 53.6738 34.8132C53.6763 35.1059 53.6985 35.3985 53.7379 35.6912H72.7627C72.8046 35.3985 72.8242 35.1059 72.8242 34.8132Z" fill="#005B0F"/>
<path d="M53.9349 34.8133C53.9349 34.3021 53.994 33.795 54.1147 33.2921C54.2329 32.7913 54.4102 32.3028 54.6441 31.8307C54.8781 31.3587 55.1637 30.9094 55.5035 30.4827C55.8433 30.0581 56.2299 29.6645 56.6633 29.3017C57.0943 28.9389 57.5646 28.6174 58.0743 28.3329C58.5816 28.0485 59.1184 27.8073 59.6847 27.6115C60.2486 27.4157 60.8322 27.2673 61.4331 27.1684C62.0315 27.0674 62.6372 27.0179 63.2504 27.0179C63.8611 27.0179 64.4668 27.0674 65.0676 27.1684C65.666 27.2673 66.2496 27.4157 66.8135 27.6115C67.3799 27.8073 67.9167 28.0485 68.4264 28.3329C68.9337 28.6174 69.404 28.9389 69.8374 29.3017C70.2683 29.6645 70.6549 30.0581 70.9947 30.4827C71.3346 30.9094 71.6227 31.3587 71.8566 31.8307C72.0881 32.3028 72.2654 32.7913 72.386 33.2921C72.5042 33.795 72.5633 34.3021 72.5633 34.8133C72.5633 35.1059 72.5412 35.3986 72.4993 35.6913H73.0238C73.0607 35.3986 73.0804 35.1059 73.0829 34.8133C73.0829 34.2732 73.0189 33.7373 72.8933 33.2076C72.7677 32.6779 72.5806 32.1626 72.3319 31.6638C72.0856 31.165 71.7827 30.6909 71.4232 30.2416C71.0662 29.7922 70.6574 29.3759 70.1994 28.9946C69.7438 28.6112 69.2464 28.2711 68.7096 27.9702C68.1728 27.6713 67.6064 27.4178 67.0081 27.2096C66.4121 27.0035 65.7965 26.8468 65.1637 26.7417C64.5308 26.6366 63.8906 26.583 63.2454 26.583C62.5978 26.583 61.9576 26.6366 61.3247 26.7417C60.6919 26.8468 60.0763 27.0035 59.4804 27.2096C58.882 27.4178 58.3156 27.6713 57.7788 27.9702C57.242 28.2711 56.7446 28.6112 56.289 28.9946C55.831 29.3759 55.4223 29.7922 55.0652 30.2416C54.7057 30.6909 54.4028 31.165 54.1566 31.6638C53.9079 32.1626 53.7207 32.6779 53.5951 33.2076C53.4695 33.7373 53.4055 34.2732 53.4055 34.8133C53.4104 35.1059 53.4301 35.3986 53.4695 35.6913H53.994C53.9546 35.3986 53.9349 35.1059 53.9349 34.8133Z" fill="white"/>
<path d="M47.8255 5.93216C45.6241 5.75696 43.5852 6.90503 43.4744 7.90057C43.3636 8.89612 45.0479 9.12491 47.2321 9.29599C49.4187 9.46706 51.337 9.51859 51.4256 8.52305C51.5143 7.5275 50.027 6.10323 47.8255 5.93216ZM45.8014 6.83907C45.5059 6.9648 45.2548 7.13794 45.0504 7.35643C44.846 7.57491 44.7081 7.81813 44.6318 8.0902C44.6145 8.20357 44.6318 8.31281 44.681 8.41793C44.7524 8.59313 44.585 8.63435 44.3289 8.41793C44.154 8.27365 44.0826 8.09639 44.1146 7.89233C44.2033 7.1029 45.8236 6.19186 47.567 6.3279H47.6162C46.9637 6.38355 46.3604 6.55257 45.8014 6.83907Z" fill="#BA9874"/>
<path d="M46.5353 9.47119C45.8581 10.4564 44.3338 11.2252 45.1785 12.0538C46.8923 13.7234 48.2811 11.6808 48.323 10.3781C48.3353 10.1184 48.323 9.85663 48.2861 9.59692C47.9462 9.59692 47.5843 9.55776 47.1903 9.52684L46.5353 9.47119Z" fill="#BA9874"/>
<path d="M34.9002 7.06368C34.782 7.22033 34.7377 7.38935 34.7672 7.57279C34.7968 7.75623 34.8904 7.91082 35.0529 8.03655C35.2573 8.21587 35.4247 8.26122 35.4026 8.30863C35.3829 8.35603 35.1563 8.33542 34.8781 8.11488C34.7771 8.0448 34.6958 7.96235 34.6318 7.86548C34.5678 7.7686 34.5259 7.66554 34.5087 7.5563C34.4914 7.44706 34.4988 7.33988 34.5308 7.2327C34.5604 7.12552 34.6146 7.02658 34.6909 6.93589C34.7845 6.82252 34.9051 6.73183 35.048 6.66381C35.1908 6.59579 35.3459 6.55663 35.5109 6.54427C35.6759 6.53396 35.8359 6.55457 35.9911 6.60404C36.1437 6.65145 36.2792 6.72771 36.3949 6.82665C36.5131 7.13376 36.1117 7.46355 35.7916 7.31308C35.6513 7.27392 35.5331 7.2059 35.4395 7.11109C35.3459 7.01421 35.2868 6.90497 35.2671 6.78336C35.272 6.66175 35.3041 6.54839 35.3632 6.43708C35.4223 6.32784 35.506 6.23303 35.6094 6.15058C35.7153 6.06814 35.8359 6.0063 35.9714 5.96302C36.1043 5.92179 36.2447 5.90118 36.3875 5.9053C36.2546 5.91149 36.1265 5.93828 36.0034 5.98569C35.8803 6.03103 35.7744 6.09699 35.6808 6.17738C35.5872 6.25982 35.5158 6.35258 35.4666 6.4577C35.4173 6.56282 35.3927 6.67 35.3927 6.78336C35.3927 7.16468 36.289 7.38728 36.1733 6.89673C36.0748 6.84107 35.9665 6.80191 35.8507 6.77924C35.7325 6.75863 35.6168 6.7545 35.4986 6.76893C35.3804 6.78542 35.2696 6.8184 35.1662 6.86993C35.0627 6.9194 34.9741 6.98536 34.9002 7.06368Z" fill="#57A52C"/>
<path d="M37.9709 10.2852C36.592 9.24227 35.2105 8.0942 34.7698 7.69434C34.7353 7.81801 34.7353 7.93962 34.7698 8.06329C34.7845 8.11894 34.7845 8.17459 34.7698 8.23024L34.8067 8.26116C35.1416 8.75378 35.4272 9.26701 35.6661 9.79879C35.9788 10.3739 36.294 10.953 36.5993 11.5322C36.656 11.6312 36.6437 11.726 36.5673 11.8167C37.0721 12.1588 37.636 12.4062 38.259 12.5628C38.882 12.7174 39.5149 12.7689 40.1625 12.7153C40.7116 12.6618 41.2214 12.5154 41.6917 12.2763C40.3275 11.7775 39.0864 11.1138 37.9709 10.2852Z" fill="#57A52C"/>
<path d="M34.6122 7.75618C34.5728 7.71496 34.5407 7.67167 34.5112 7.62427C34.5112 7.62427 34.5112 7.62427 34.4866 7.62427L34.5801 7.7603L34.6122 7.75618Z" fill="#57A52C"/>
<path d="M35.1366 8.86497C35.1489 8.9907 35.1095 9.10407 35.0184 9.20301C34.9248 9.30194 34.8017 9.35965 34.6539 9.37821H34.553V9.60287L34.681 9.56783C34.7746 9.53898 34.8706 9.52867 34.9691 9.53485C35.0676 9.54104 35.1612 9.56371 35.2499 9.60287C35.336 9.63997 35.4124 9.69356 35.4739 9.75746C35.5355 9.82342 35.5798 9.89556 35.6044 9.97594C35.6315 10.0563 35.6365 10.1367 35.6217 10.2192C35.6069 10.3016 35.5724 10.3779 35.5183 10.448C35.4665 10.518 35.3976 10.5757 35.3163 10.6232C35.2351 10.6706 35.144 10.7015 35.0479 10.7159C34.947 10.7448 34.846 10.753 34.7426 10.7427C34.7426 10.821 34.7894 10.8993 34.8165 10.9736C34.9076 10.9014 35.0135 10.8519 35.1366 10.8293C35.2252 10.7942 35.3188 10.7736 35.4148 10.7695C35.5133 10.7674 35.6094 10.7798 35.7005 10.8087C35.7916 10.8396 35.8728 10.8829 35.9443 10.9406C36.0132 10.9983 36.0674 11.0663 36.1043 11.1426C36.1413 11.2188 36.156 11.2972 36.1536 11.3796C36.1511 11.462 36.1289 11.5404 36.0871 11.6146C36.0452 11.6888 35.9861 11.7527 35.9122 11.8083C35.8384 11.8619 35.7547 11.9011 35.6611 11.9258C35.5503 11.9712 35.4345 11.9897 35.3139 11.9835C35.3582 12.0618 35.4074 12.1381 35.4616 12.2103C35.5306 12.134 35.6168 12.0722 35.7226 12.0309C35.8064 11.9938 35.8925 11.9712 35.9861 11.9609C36.0797 11.9526 36.1708 11.9588 36.2619 11.9815C36.353 12.0041 36.4343 12.0392 36.5082 12.0886C36.5796 12.1381 36.6387 12.1958 36.6855 12.2659C36.7298 12.3339 36.7569 12.4081 36.7667 12.4864C36.779 12.5648 36.7692 12.641 36.7446 12.7173C36.7175 12.7915 36.6756 12.8595 36.6165 12.9214C36.5574 12.9832 36.486 13.0327 36.4047 13.0698C36.3555 13.0966 36.3013 13.1172 36.2471 13.1316L36.3875 13.2759C36.4195 13.245 36.4564 13.2182 36.4983 13.1976C36.6214 13.1254 36.7593 13.1007 36.9071 13.1192C37.0573 13.1378 37.1779 13.1976 37.2691 13.2986C37.3503 13.4016 37.3799 13.515 37.3552 13.6386C37.3331 13.7603 37.2641 13.8613 37.1484 13.9375C37.3306 14.0859 37.5251 14.224 37.7295 14.3497L37.7763 14.3765C37.599 13.1893 37.2789 12.0268 36.8234 10.8911C36.1979 9.81723 35.4715 8.79489 34.6441 7.82202C34.6441 7.95394 34.585 8.18685 34.5653 8.48778C34.7032 8.48366 34.8263 8.51664 34.9322 8.58878C35.0405 8.66092 35.1095 8.75161 35.1366 8.86497Z" fill="#57A52C"/>
<path d="M34.5185 7.62427C34.255 7.92932 34.0433 8.25499 33.8808 8.60332C33.7182 8.95372 33.6099 9.31237 33.5557 9.68544C33.5015 10.0564 33.504 10.4295 33.5631 10.8005C33.6222 11.1715 33.7355 11.5302 33.9054 11.8785C35.011 14.1664 37.9093 14.7106 37.8724 14.5622C37.7714 14.7147 35.4666 13.0142 34.915 11.5797C34.1024 10.1162 34.4545 7.63457 34.5382 7.65518L34.5185 7.62427Z" fill="#57A52C"/>
<path d="M66.5821 9.31656C66.1437 9.85453 65.831 10.4378 65.6488 11.0706C65.5281 11.4664 65.4222 11.86 65.3361 12.2558C65.1366 11.8291 65.0455 11.388 65.0603 10.9325C65.0775 10.4749 65.1982 10.04 65.4247 9.62368C65.8679 9.028 66.4491 8.54981 67.1706 8.19116C67.2912 8.55805 67.3479 8.93112 67.3405 9.31038C67.3331 9.69169 67.2592 10.0627 67.1238 10.4255C66.9859 10.7882 66.7889 11.1283 66.5353 11.4416C66.2792 11.757 65.9763 12.0352 65.6242 12.2764C65.6857 11.8992 65.7596 11.522 65.8532 11.1448C66.0058 10.51 66.2496 9.90193 66.5821 9.31656Z" fill="#57A52C"/>
<path d="M61.7655 9.77812C62.4082 10.4171 62.9105 11.1282 63.27 11.9094C63.5064 12.3855 63.701 12.8781 63.8832 13.3687C64.1417 12.7792 64.2205 12.1732 64.1147 11.5507C64.0088 10.9303 63.733 10.3656 63.2873 9.86056C62.6076 9.17626 61.7532 8.72692 60.7239 8.5105C60.4579 9.30199 60.4579 10.0914 60.7239 10.8829C60.943 11.46 61.2976 11.9691 61.7926 12.4123C62.2851 12.8534 62.8687 13.1852 63.5434 13.4078C63.4079 12.9255 63.2602 12.4515 63.0755 11.9877C62.7899 11.188 62.3515 10.4521 61.7655 9.77812Z" fill="#A4C52C"/>
<path d="M38.0965 3.62564C38.6924 3.99459 39.1997 4.43362 39.6232 4.94067C39.8892 5.24778 40.1453 5.57757 40.3669 5.9053C40.4334 5.44359 40.3644 4.99426 40.1576 4.55935C39.9532 4.12651 39.6356 3.75962 39.2095 3.45869C38.5767 3.065 37.8675 2.86507 37.0795 2.85889C37.0451 3.46693 37.2051 4.03994 37.5572 4.57378C37.8355 4.95716 38.1975 5.27252 38.6456 5.51986C39.0938 5.7672 39.5838 5.92385 40.1157 5.98568C39.9261 5.65796 39.7143 5.33847 39.4853 5.0293C39.1135 4.49752 38.6506 4.02963 38.0965 3.62564Z" fill="#A4C52C"/>
<path d="M42.4747 4.79622C42.1472 5.2064 41.9305 5.65367 41.8246 6.13804C41.7507 6.44928 41.7704 6.83884 41.7335 7.15626C41.4848 6.82648 41.3469 6.46577 41.3173 6.07621C41.2903 5.68665 41.374 5.31564 41.571 4.96318C41.8886 4.5056 42.3343 4.16551 42.9081 3.94702C43.1863 4.39223 43.3095 4.86424 43.275 5.36717C43.2233 5.73199 43.0829 6.07209 42.849 6.38332C42.6175 6.69662 42.3171 6.95427 41.9502 7.15626C41.9502 6.85327 41.9797 6.55028 42.0167 6.25141C42.0733 5.74642 42.226 5.25999 42.4747 4.79622Z" fill="#157A2C"/>
<path d="M38.8303 22.2379C39.0027 21.9885 39.0938 21.7185 39.1061 21.4299C39.1184 21.1413 39.0495 20.8672 38.8993 20.6075C38.6924 20.321 38.4215 20.0881 38.0867 19.9067C37.1115 19.3358 35.932 19.0637 34.9421 18.5072C34.2452 18.1135 33.6887 17.6106 33.2701 16.9984C33.1938 16.8665 33.0953 16.749 32.9722 16.6439C32.8293 16.5284 32.6693 16.5037 32.4895 16.5697C32.3467 16.6459 32.2802 16.7552 32.295 16.8974C32.3073 17.0293 32.3516 17.1509 32.4255 17.2663C32.9746 18.3278 33.738 19.2677 34.7156 20.086C35.3706 20.6116 36.1462 21.0898 36.4417 21.805C36.5452 22.0544 36.5821 22.3224 36.6658 22.5759C36.8037 22.9882 37.0918 23.4272 37.6508 23.2025C38.1704 22.9882 38.5619 22.6666 38.8303 22.2379Z" fill="white"/>
<path d="M37.4587 19.3132C36.587 18.9566 35.7596 18.5423 34.9741 18.0683C34.5653 17.8086 34.196 17.5159 33.8611 17.1923C33.6321 16.9676 33.3809 16.7141 33.1076 16.4771C32.9598 16.5306 32.8071 16.5719 32.652 16.6007C32.913 16.811 33.1765 17.0377 33.4006 17.2747L33.5483 17.419C33.9005 17.757 34.2895 18.0642 34.7155 18.3362C35.4961 18.8041 36.3186 19.2163 37.1804 19.5729L37.2642 19.608C39.1602 20.4448 38.978 21.2775 38.6801 21.8299C38.4535 22.2792 38.1236 22.6626 37.6828 22.98C37.8625 22.7925 38.0177 22.5925 38.1506 22.3782C38.5102 21.8134 38.7687 20.9457 36.8332 19.9542L36.7495 19.9151C35.868 19.4925 35.0332 19.0102 34.2501 18.4681C33.8167 18.159 33.4301 17.8168 33.0854 17.4376L32.945 17.2747C32.7554 17.0686 32.551 16.8378 32.3368 16.6358H32.1841C32.2728 16.8955 32.2925 17.1572 32.2432 17.4252L32.2014 17.656L31.933 17.5818C31.4503 17.4437 30.9923 17.2603 30.5614 17.0294C30.4604 17.4128 30.2068 17.7055 29.8054 17.9075C30.0049 19.3009 30.6156 20.554 31.635 21.6691C33.2701 23.3304 37.2469 25.2824 39.0617 21.9618C39.7586 20.7045 38.7269 19.8718 37.4587 19.3132Z" fill="#7F3068"/>
<path d="M33.2011 16.2234C32.6864 15.7369 32.0511 15.4092 31.3001 15.2402C30.8371 15.1619 30.4554 15.065 30.3348 14.7146L29.8103 14.9166C29.9137 15.0753 29.963 15.2464 29.958 15.4278C29.9531 15.6091 29.894 15.7782 29.7783 15.9328C29.6379 16.1966 29.5542 16.4707 29.5271 16.7572C29.5443 17.0953 29.5985 17.4292 29.6896 17.7569C29.9162 17.6291 30.0935 17.4663 30.2215 17.2643C30.3496 17.0643 30.416 16.85 30.4185 16.6212C30.4185 16.8809 31.7556 17.3488 32.0166 17.4189C32.0683 17.223 32.0634 17.0272 32.0043 16.8314C31.9452 16.6356 31.8344 16.4625 31.6768 16.3099C31.992 16.6006 32.8514 16.4151 33.2011 16.2234Z" fill="#157A2C"/>
<path d="M56.9809 2.9516C57.3281 2.81556 58.5544 2.5909 58.2959 2.17454C57.9511 1.64482 56.4614 2.39921 56.1535 2.65273C55.7128 1.92102 56.3161 1.24083 56.0575 0.548276C55.6611 -0.509104 54.3609 0.109247 54.3929 1.05738C53.1395 -0.439024 50.7066 0.956388 52.4328 1.89422C53.3636 2.39921 53.8733 2.10446 54.8386 2.43837C55.1439 2.52906 55.3927 2.68365 55.5847 2.90419C55.7768 3.12474 55.8778 3.37208 55.8851 3.64415C55.9196 3.64003 55.9516 3.64003 55.9861 3.64415C56.289 3.69362 56.5672 3.79462 56.8184 3.94715C57.1927 3.88943 57.5694 3.86058 57.9511 3.85439C59.894 3.70599 58.1506 2.87534 56.9809 2.9516Z" fill="#157A2C"/>
<path d="M56.1683 3.55133C56.0156 3.50599 55.8605 3.47301 55.7004 3.45446C55.5379 3.43384 55.3778 3.42766 55.2153 3.43591C55.0553 3.44209 54.8952 3.4627 54.7376 3.49568C54.58 3.52866 54.4298 3.57607 54.2845 3.63378C54.1368 3.69149 53.9989 3.76157 53.8708 3.84402C53.7403 3.9244 53.6221 4.01509 53.5138 4.11609C53.4054 4.21709 53.3094 4.32633 53.2281 4.44382C53.1444 4.55924 53.0779 4.68291 53.0238 4.81071C52.4993 6.29269 54.5234 6.78737 54.2353 8.72487C55.2104 7.04501 57.3798 7.70459 57.956 6.0371C58.0324 5.77327 58.0471 5.50738 57.9979 5.23943C57.9486 4.96942 57.8403 4.72002 57.6728 4.4871C57.5054 4.25419 57.2912 4.05632 57.0326 3.89555C56.7716 3.73271 56.4835 3.61729 56.1683 3.55133ZM53.3759 5.19202C53.334 5.30745 53.3094 5.42494 53.302 5.54654C53.2478 5.32188 53.2601 5.10133 53.3439 4.88491C53.4399 4.66024 53.5852 4.45825 53.7773 4.28099C53.9693 4.10579 54.1959 3.96563 54.4544 3.86463C54.713 3.76363 54.9839 3.70798 55.2695 3.69767C55.5551 3.68737 55.8334 3.72241 56.0993 3.80486C56.2668 3.84608 56.4244 3.90173 56.5771 3.97181C55.1415 3.6647 53.7256 4.2006 53.3759 5.19202Z" fill="#7F3068"/>
<path d="M24.0039 28.2112H78.3968C78.5766 28.2112 78.7489 28.238 78.9139 28.2957C79.0789 28.3534 79.2267 28.4358 79.3522 28.541C79.4803 28.6481 79.5763 28.7698 79.6453 28.9079C79.7142 29.048 79.7487 29.1923 79.7487 29.3407V45.6569H24.0039V28.2112Z" fill="#F68820"/>
<path d="M114.592 48.5323H23.7059V44.6346H76.5401V21.0981H92.8563C93.201 21.0981 93.5359 21.1373 93.8659 21.2177C94.1958 21.2981 94.5036 21.4176 94.7917 21.5722C95.0799 21.7289 95.336 21.9144 95.56 22.1329C95.7841 22.3513 95.9663 22.5904 96.1067 22.8522L100.189 30.6929C104.61 31.6864 108.746 33.2219 112.595 35.2955C112.925 35.4727 113.223 35.6789 113.489 35.918C113.755 36.1571 113.984 36.4188 114.171 36.7053C114.358 36.9918 114.501 37.2948 114.597 37.6102C114.696 37.9276 114.745 38.2491 114.745 38.5748V43.837L114.592 48.5323Z" fill="#C6C6C6"/>
<path d="M111.657 42.2312C111.657 42.4992 111.714 42.7589 111.829 43.0083C111.945 43.2577 112.11 43.4823 112.324 43.6802C112.541 43.8781 112.79 44.0368 113.078 44.1584C113.363 44.278 113.666 44.3501 113.984 44.3769V40.0793C113.664 40.1061 113.363 40.1803 113.075 40.2999C112.79 40.4215 112.539 40.5823 112.324 40.7801C112.11 40.9801 111.945 41.2047 111.829 41.4541C111.714 41.7056 111.657 41.9633 111.657 42.2312Z" fill="white"/>
<path d="M93.9003 23.6766C93.8067 23.5014 93.6664 23.3633 93.4768 23.2561C93.2872 23.151 93.0803 23.0974 92.8513 23.0933H78.8942V32.0594H94.9222L96.9291 29.4293L93.9003 23.6766Z" fill="white"/>
<mask id="mask1_1_3470" style="mask-type:luminance" maskUnits="userSpaceOnUse" x="22" y="43" width="95" height="6">
<path d="M22.2581 43.7957H116.415V48.5446H22.2581V43.7957Z" fill="white"/>
</mask>
<g mask="url(#mask1_1_3470)">
<path d="M23.3809 43.8245H115.294C115.402 43.8245 115.508 43.841 115.609 43.876C115.71 43.911 115.799 43.9605 115.875 44.0244C115.954 44.0904 116.013 44.1646 116.055 44.2491C116.097 44.3336 116.117 44.4201 116.117 44.5129V47.8437C116.117 47.9365 116.097 48.0231 116.055 48.1076C116.013 48.1921 115.954 48.2663 115.875 48.3302C115.799 48.3961 115.71 48.4456 115.609 48.4806C115.508 48.5157 115.402 48.5322 115.294 48.5322H23.3809C23.2701 48.5322 23.1667 48.5157 23.0658 48.4806C22.9648 48.4456 22.8761 48.3961 22.7973 48.3302C22.721 48.2663 22.6619 48.1921 22.6201 48.1076C22.5782 48.0231 22.556 47.9365 22.556 47.8437V44.5129C22.556 44.4201 22.5782 44.3336 22.6201 44.2491C22.6619 44.1646 22.721 44.0904 22.7973 44.0244C22.8761 43.9605 22.9648 43.911 23.0658 43.876C23.1667 43.841 23.2701 43.8245 23.3809 43.8245Z" fill="#54381C"/>
</g>
<path d="M102.223 40.3784C101.711 40.3784 101.204 40.4176 100.699 40.4959C100.194 40.5722 99.7043 40.6876 99.2241 40.8381C98.7464 40.9906 98.2884 41.1761 97.8476 41.3987C97.4093 41.6192 96.9981 41.8707 96.6139 42.1531C96.2298 42.4375 95.8777 42.7467 95.56 43.0827C95.2424 43.4186 94.9641 43.7752 94.7228 44.1524C94.4815 44.5317 94.2845 44.9254 94.1293 45.3335C93.9717 45.7416 93.8609 46.1579 93.7944 46.5825H110.65C110.583 46.1579 110.473 45.7416 110.317 45.3335C110.162 44.9254 109.963 44.5317 109.722 44.1524C109.483 43.7752 109.202 43.4186 108.884 43.0827C108.567 42.7467 108.217 42.4375 107.83 42.1531C107.446 41.8707 107.035 41.6192 106.597 41.3987C106.158 41.1761 105.698 40.9906 105.22 40.8381C104.74 40.6876 104.25 40.5722 103.745 40.4959C103.243 40.4176 102.736 40.3784 102.223 40.3784Z" fill="#C6C6C6"/>
<mask id="mask2_1_3470" style="mask-type:luminance" maskUnits="userSpaceOnUse" x="93" y="40" width="18" height="14">
<path d="M93.9275 40.6299H110.318V53.9883H93.9275V40.6299Z" fill="white"/>
</mask>
<g mask="url(#mask2_1_3470)">
<path d="M109.98 47.4937C109.98 47.9203 109.931 48.3429 109.83 48.7613C109.731 49.1797 109.584 49.5858 109.389 49.9794C109.195 50.3731 108.956 50.7462 108.673 51.1007C108.389 51.4552 108.067 51.785 107.707 52.086C107.345 52.3869 106.954 52.6569 106.53 52.8939C106.107 53.131 105.659 53.3309 105.188 53.4937C104.718 53.6566 104.233 53.7802 103.733 53.8627C103.233 53.9451 102.728 53.9884 102.219 53.9884C101.709 53.9884 101.204 53.9451 100.704 53.8627C100.204 53.7802 99.7192 53.6566 99.2464 53.4937C98.7761 53.3309 98.3279 53.131 97.9044 52.8939C97.4808 52.6569 97.0893 52.3869 96.7298 52.086C96.3678 51.785 96.0477 51.4552 95.7645 51.1007C95.4813 50.7462 95.2424 50.3731 95.0455 49.9794C94.8509 49.5858 94.7032 49.1797 94.6047 48.7613C94.5062 48.3429 94.4545 47.9203 94.4545 47.4937C94.4545 47.067 94.5062 46.6445 94.6047 46.226C94.7032 45.8097 94.8509 45.4036 95.0455 45.01C95.2424 44.6142 95.4813 44.2411 95.7645 43.8866C96.0477 43.5321 96.3678 43.2044 96.7298 42.9014C97.0893 42.6004 97.4808 42.3325 97.9044 42.0955C98.3279 41.8584 98.7761 41.6585 99.2464 41.4957C99.7192 41.3308 100.204 41.2092 100.704 41.1246C101.204 41.0422 101.709 41.001 102.219 41.001C102.728 41.001 103.233 41.0422 103.733 41.1246C104.233 41.2092 104.718 41.3308 105.188 41.4957C105.659 41.6585 106.107 41.8584 106.53 42.0955C106.954 42.3325 107.345 42.6004 107.707 42.9014C108.067 43.2044 108.389 43.5321 108.673 43.8866C108.956 44.2411 109.195 44.6142 109.389 45.01C109.584 45.4036 109.731 45.8097 109.83 46.226C109.931 46.6445 109.98 47.067 109.98 47.4937Z" fill="#54381C"/>
</g>
<path d="M105.321 47.4935C105.321 47.6645 105.302 47.8335 105.26 48.0005C105.22 48.1675 105.161 48.3303 105.085 48.4869C105.006 48.6436 104.91 48.7941 104.797 48.9363C104.683 49.0785 104.555 49.2083 104.413 49.33C104.267 49.4495 104.11 49.5567 103.942 49.6515C103.772 49.7463 103.593 49.8267 103.405 49.8927C103.216 49.9566 103.024 50.006 102.822 50.039C102.622 50.072 102.42 50.0885 102.219 50.0885C102.014 50.0885 101.812 50.072 101.613 50.039C101.413 50.006 101.219 49.9566 101.029 49.8927C100.842 49.8267 100.662 49.7463 100.495 49.6515C100.325 49.5567 100.167 49.4495 100.024 49.33C99.8792 49.2083 99.7512 49.0785 99.6379 48.9363C99.5246 48.7941 99.4286 48.6436 99.3498 48.4869C99.2734 48.3303 99.2143 48.1675 99.1749 48.0005C99.1355 47.8335 99.1158 47.6645 99.1158 47.4935C99.1158 47.3224 99.1355 47.1554 99.1749 46.9864C99.2143 46.8194 99.2734 46.6587 99.3498 46.5C99.4286 46.3433 99.5246 46.1929 99.6379 46.0506C99.7512 45.9105 99.8792 45.7786 100.024 45.659C100.167 45.5374 100.325 45.4302 100.495 45.3354C100.662 45.2406 100.842 45.1602 101.029 45.0963C101.219 45.0304 101.413 44.9809 101.613 44.9479C101.812 44.9149 102.014 44.8984 102.219 44.8984C102.42 44.8984 102.622 44.9149 102.822 44.9479C103.024 44.9809 103.216 45.0304 103.405 45.0963C103.593 45.1602 103.772 45.2406 103.942 45.3354C104.11 45.4302 104.267 45.5374 104.413 45.659C104.555 45.7786 104.683 45.9105 104.797 46.0506C104.91 46.1929 105.006 46.3433 105.085 46.5C105.161 46.6587 105.22 46.8194 105.26 46.9864C105.302 47.1554 105.321 47.3224 105.321 47.4935Z" fill="white"/>
<path d="M36.3309 40.3784C35.8187 40.3784 35.3115 40.4176 34.8067 40.4959C34.3043 40.5722 33.8118 40.6876 33.3341 40.8381C32.854 40.9906 32.3959 41.1761 31.9576 41.3987C31.5193 41.6192 31.1056 41.8707 30.7215 42.1531C30.3373 42.4375 29.9877 42.7467 29.67 43.0827C29.3524 43.4186 29.0716 43.7752 28.8303 44.1524C28.5915 44.5317 28.392 44.9254 28.2369 45.3335C28.0793 45.7416 27.9685 46.1579 27.902 46.5825H44.7525C44.6885 46.1579 44.5776 45.7416 44.4225 45.3335C44.2674 44.9254 44.0679 44.5317 43.8291 44.1524C43.5877 43.7752 43.3095 43.4186 42.9918 43.0827C42.6742 42.7446 42.322 42.4355 41.9379 42.1531C41.5538 41.8707 41.1425 41.6172 40.7042 41.3966C40.2659 41.1761 39.8079 40.9906 39.3277 40.8381C38.85 40.6876 38.3575 40.5722 37.8552 40.4938C37.3504 40.4176 36.8431 40.3784 36.3309 40.3784Z" fill="#C6C6C6"/>
<mask id="mask3_1_3470" style="mask-type:luminance" maskUnits="userSpaceOnUse" x="28" y="40" width="17" height="14">
<path d="M28.3673 40.6299H44.1269V53.9883H28.3673V40.6299Z" fill="white"/>
</mask>
<g mask="url(#mask3_1_3470)">
<path d="M44.0925 47.4937C44.0925 47.9203 44.0432 48.3429 43.9447 48.7613C43.8438 49.1797 43.696 49.5858 43.5015 49.9794C43.3069 50.3731 43.0681 50.7462 42.7849 51.1007C42.5017 51.4552 42.1791 51.785 41.8196 52.086C41.4601 52.3869 41.0661 52.6569 40.6426 52.8939C40.219 53.131 39.7733 53.3309 39.3005 53.4937C38.8302 53.6566 38.3451 53.7802 37.8452 53.8627C37.3454 53.9451 36.8406 53.9884 36.3308 53.9884C35.8211 53.9884 35.3163 53.9451 34.8164 53.8627C34.3166 53.7802 33.8315 53.6566 33.3611 53.4937C32.8883 53.3309 32.4426 53.131 32.0191 52.8939C31.5956 52.6569 31.2016 52.3869 30.842 52.086C30.4825 51.785 30.16 51.4552 29.8768 51.1007C29.5936 50.7462 29.3547 50.3731 29.1602 49.9794C28.9657 49.5858 28.8179 49.1797 28.717 48.7613C28.6185 48.3429 28.5692 47.9203 28.5692 47.4937C28.5692 47.067 28.6185 46.6445 28.717 46.226C28.8179 45.8097 28.9657 45.4036 29.1602 45.01C29.3547 44.6142 29.5936 44.2411 29.8768 43.8866C30.16 43.5321 30.4825 43.2044 30.842 42.9014C31.2016 42.6004 31.5956 42.3325 32.0191 42.0955C32.4426 41.8584 32.8883 41.6585 33.3611 41.4957C33.8315 41.3308 34.3166 41.2092 34.8164 41.1246C35.3163 41.0422 35.8211 41.001 36.3308 41.001C36.8406 41.001 37.3454 41.0422 37.8452 41.1246C38.3451 41.2092 38.8302 41.3308 39.3005 41.4957C39.7733 41.6585 40.219 41.8584 40.6426 42.0955C41.0661 42.3325 41.4601 42.6004 41.8196 42.9014C42.1791 43.2044 42.5017 43.5321 42.7849 43.8866C43.0681 44.2411 43.3069 44.6142 43.5015 45.01C43.696 45.4036 43.8438 45.8097 43.9447 46.226C44.0432 46.6445 44.0925 47.067 44.0925 47.4937Z" fill="#54381C"/>
</g>
<path d="M39.4336 47.4935C39.4336 47.6645 39.4139 47.8335 39.3745 48.0005C39.3351 48.1675 39.276 48.3303 39.1972 48.4869C39.1184 48.6436 39.0249 48.7941 38.9116 48.9363C38.7983 49.0785 38.6678 49.2083 38.525 49.33C38.3797 49.4495 38.2246 49.5567 38.0547 49.6515C37.8848 49.7463 37.7075 49.8267 37.5178 49.8927C37.3307 49.9566 37.1362 50.006 36.9367 50.039C36.7373 50.072 36.5353 50.0885 36.331 50.0885C36.1266 50.0885 35.9246 50.072 35.7252 50.039C35.5257 50.006 35.3312 49.9566 35.1441 49.8927C34.9544 49.8267 34.7771 49.7463 34.6072 49.6515C34.4373 49.5567 34.2822 49.4495 34.1369 49.33C33.9941 49.2083 33.8636 49.0785 33.7503 48.9363C33.637 48.7941 33.5435 48.6436 33.4647 48.4869C33.3859 48.3303 33.3268 48.1675 33.2874 48.0005C33.248 47.8335 33.2283 47.6645 33.2283 47.4935C33.2283 47.3224 33.248 47.1554 33.2874 46.9864C33.3268 46.8194 33.3859 46.6587 33.4647 46.5C33.5435 46.3433 33.637 46.1929 33.7503 46.0506C33.8636 45.9105 33.9941 45.7786 34.1369 45.659C34.2822 45.5374 34.4373 45.4302 34.6072 45.3354C34.7771 45.2406 34.9544 45.1602 35.1441 45.0963C35.3312 45.0304 35.5257 44.9809 35.7252 44.9479C35.9246 44.9149 36.1266 44.8984 36.331 44.8984C36.5353 44.8984 36.7373 44.9149 36.9367 44.9479C37.1362 44.9809 37.3307 45.0304 37.5178 45.0963C37.7075 45.1602 37.8848 45.2406 38.0547 45.3354C38.2246 45.4302 38.3797 45.5374 38.525 45.659C38.6678 45.7786 38.7983 45.9105 38.9116 46.0506C39.0249 46.1929 39.1184 46.3433 39.1972 46.5C39.276 46.6587 39.3351 46.8194 39.3745 46.9864C39.4139 47.1554 39.4336 47.3224 39.4336 47.4935Z" fill="white"/>
<path d="M16.231 70.6544C16.4526 70.6441 16.6964 70.675 16.9599 70.7451C17.2283 70.8111 17.4376 70.9822 17.5902 71.2563C17.8266 71.6747 17.7183 72.089 17.2652 72.5012C16.9894 72.7548 16.6644 72.9588 16.2901 73.1113C14.6796 73.7647 12.9214 73.9317 11.0106 73.6143C9.89264 73.4288 9.16868 72.8207 8.83379 71.7922C8.6171 71.1388 8.52352 70.4854 8.558 69.83C8.5974 69.1704 8.66881 68.552 8.77469 67.9749C8.85842 67.4926 8.95199 67.0082 9.05049 66.5238C9.15391 66.0415 9.25733 65.5633 9.35583 65.0893C9.40754 64.8584 9.45433 64.6317 9.49373 64.405C9.53805 64.1803 9.5873 63.9515 9.64147 63.7206L9.66117 63.6547C9.67349 63.5949 9.68334 63.531 9.69072 63.4651C9.70303 63.395 9.70057 63.3208 9.68087 63.2425C9.54298 62.6653 9.84093 62.2098 10.5772 61.8738C10.7151 61.8141 10.8555 61.7564 11.0007 61.7007C11.1436 61.6471 11.2913 61.61 11.444 61.5935L12.2517 61.4946C12.8279 61.4348 13.4164 61.3709 14.0148 61.305C14.6107 61.2349 15.2066 61.1875 15.7976 61.1648C15.8493 61.1648 15.8985 61.1648 15.9453 61.1648C16.5363 61.1648 17.014 61.3091 17.3834 61.5935C17.7035 61.8367 17.871 62.1356 17.8857 62.4922C17.898 62.8879 17.7183 63.2177 17.344 63.4816C16.9746 63.7454 16.492 63.8938 15.8961 63.9268C15.5021 63.9433 15.1106 63.9494 14.724 63.9433C14.3349 63.9329 13.9458 63.9165 13.5518 63.8938L13.0692 63.8773C12.8254 63.867 12.6358 63.8649 12.4979 63.8691C12.36 63.8752 12.2467 63.9144 12.163 63.9845C12.0768 64.0504 12.0276 64.1411 12.0153 64.2566C12.0005 64.372 11.9956 64.5286 11.9956 64.7265C11.9956 64.9244 11.9956 65.1264 11.9956 65.3284C11.9956 65.5262 11.9956 65.7241 11.9956 65.922V66.7135L12.2418 66.6805C12.3797 66.6599 12.5127 66.6393 12.6457 66.6228C12.7762 66.6022 12.9116 66.5733 13.0495 66.5403C13.3376 66.497 13.6232 66.4558 13.9064 66.4167C14.1871 66.3734 14.4679 66.3404 14.7437 66.3177C15.4455 66.2683 16.098 66.3012 16.7038 66.4167C17.2406 66.5115 17.5311 66.7877 17.5705 67.2494C17.5952 67.5132 17.5262 67.7234 17.3637 67.876C17.1987 68.0244 17.0288 68.1377 16.8515 68.214C16.4107 68.4016 15.9847 68.5108 15.571 68.5438C15.1697 68.5768 14.7584 68.6015 14.3398 68.618C13.9187 68.6304 13.4952 68.6468 13.0692 68.6675C12.8919 68.6675 12.7097 68.6736 12.5275 68.6839C12.3428 68.6963 12.1581 68.7004 11.9759 68.7004L11.7887 68.7169V68.8736C11.7887 68.9457 11.7887 69.022 11.7887 69.1044C11.7887 69.1827 11.7887 69.257 11.7887 69.327C11.7887 69.5538 11.7887 69.7784 11.7887 70.0031C11.7887 70.2298 11.7936 70.4524 11.8084 70.6709C11.8084 70.7431 11.833 70.809 11.8872 70.8688C11.9463 70.9244 11.9956 70.9677 12.035 71.0007C12.0793 71.0337 12.1384 71.0708 12.2123 71.1079C12.2911 71.1409 12.3748 71.1574 12.4684 71.1574C13.1702 71.1202 13.9483 71.0419 14.8028 70.9265C14.9136 70.9162 15.0219 70.8976 15.1278 70.8688C15.2312 70.842 15.3371 70.8173 15.443 70.7946C15.5809 70.7616 15.7139 70.7348 15.8468 70.7121C15.9773 70.6853 16.1054 70.6668 16.231 70.6544Z" fill="#593118"/>
<path d="M32.915 71.0665C33.2696 71.5179 33.2696 71.9446 32.915 72.3444C32.5013 72.7958 32.0802 73.0988 31.6542 73.2513C30.3073 73.779 28.8323 74.0758 27.2317 74.1418C24.8406 73.9934 22.9076 73.34 21.4302 72.1795C19.4454 70.6357 18.8347 68.6302 19.5981 66.1609C20.162 64.3038 21.5385 62.7868 23.7252 61.6098C24.2226 61.346 24.7495 61.1481 25.3011 61.0162C25.8576 60.8843 26.4141 60.8184 26.9657 60.8184C27.6158 60.8184 28.2462 60.907 28.8569 61.0822C29.4676 61.2533 30.0216 61.5109 30.5215 61.8572C30.9007 62.121 31.1765 62.4055 31.3489 62.7064C31.4991 62.9929 31.4892 63.2464 31.3193 63.4649C31.1149 63.6854 30.8121 63.7761 30.4131 63.737C30.1226 63.7164 29.8025 63.6422 29.4479 63.5144C28.1403 63.0753 26.9805 63.0238 25.9709 63.3577C24.9662 63.6937 24.0305 64.4378 23.1637 65.592C22.9716 65.8456 22.8288 66.1156 22.7303 66.4C22.6368 66.6803 22.5678 66.9359 22.5235 67.1668C22.3462 67.9047 22.4644 68.5993 22.8781 69.2527C23.2918 69.9019 23.932 70.3987 24.7988 70.745C25.4735 71.0315 26.1408 71.1984 26.7983 71.2479C27.4607 71.2932 28.0935 71.2685 28.6993 71.1737C29.31 71.0809 29.8936 70.9552 30.4525 70.7944C30.6101 70.7573 30.7874 70.712 30.9844 70.6625C31.1814 70.613 31.3636 70.5801 31.536 70.5636C32.1393 70.51 32.5998 70.6769 32.915 71.0665Z" fill="#593118"/>
<path d="M41.8833 61.783C42.723 61.9479 43.4937 62.1581 44.198 62.4096C44.8998 62.6631 45.508 62.9929 46.0202 63.3989C46.5373 63.8009 46.9486 64.31 47.2514 64.9242C47.5592 65.5405 47.7464 66.2887 47.8129 67.1668C47.6602 68.5807 47.1776 69.702 46.365 70.5306C46.2 70.6749 46.0424 70.8233 45.8922 70.9758C45.7395 71.1304 45.5819 71.2808 45.4194 71.4293L45.0648 71.792C43.8557 72.9689 42.2798 73.4554 40.3369 73.2513C40.199 73.2472 40.0611 73.2328 39.9232 73.2101C39.7853 73.1895 39.6474 73.1668 39.5095 73.1441L39.4307 73.1277C37.6233 72.8144 36.2936 72.027 35.4416 70.7614C34.9614 70.0689 34.6733 69.2939 34.5748 68.4364C34.4812 67.5749 34.5945 66.7628 34.9097 66.0043C35.939 63.537 37.8941 62.1437 40.7703 61.8242L40.9771 61.7912C41.0756 61.7871 41.1741 61.7789 41.2726 61.7665C41.376 61.7562 41.4795 61.75 41.578 61.75C41.6888 61.75 41.7897 61.7624 41.8833 61.783ZM44.4048 67.4223L44.4245 67.3729V67.3316C44.331 66.7607 44.1512 66.3217 43.8828 66.0125C43.6119 65.7054 43.1835 65.4498 42.5925 65.2457C42.0532 65.0602 41.5829 64.8809 41.184 64.7098C40.6447 64.479 40.1793 64.4048 39.7853 64.4872C39.3962 64.5656 39.0318 64.8067 38.692 65.2128C37.6873 66.4886 37.4435 67.7253 37.9631 68.9229C38.1404 69.3186 38.4186 69.6546 38.8003 69.9287C39.1795 70.2049 39.6228 70.3822 40.13 70.4646C40.3 70.4976 40.4797 70.5141 40.6718 70.5141C41.4795 70.5141 42.1443 70.2626 42.6713 69.7556C42.7156 69.7123 42.7624 69.6731 42.8092 69.6402C42.8535 69.6031 42.8978 69.566 42.9372 69.533C43.048 69.4299 43.1564 69.3269 43.2623 69.2279C43.3657 69.129 43.4642 69.0218 43.5578 68.9064C43.6686 68.7374 43.7745 68.5663 43.873 68.3952C43.9715 68.22 44.065 68.0448 44.1586 67.8676C44.198 67.7913 44.2325 67.7171 44.267 67.6449C44.3063 67.5687 44.3507 67.4945 44.4048 67.4223Z" fill="#593118"/>
<path d="M65.9989 70.1514C66.0383 70.7079 65.9743 71.2788 65.8118 71.8663C65.7133 72.1858 65.5385 72.4352 65.2898 72.6165C65.046 72.7938 64.7579 72.8866 64.423 72.8969C64.1201 72.9031 63.8246 72.8288 63.5365 72.6743C63.2459 72.5156 63.0637 72.2682 62.9849 71.9322C62.7337 70.9099 62.5614 69.7227 62.4629 68.3705C62.4235 68.0036 62.4062 67.6347 62.4136 67.2657C62.4185 66.8989 62.4235 66.5361 62.4235 66.1775C62.4235 66.0084 62.4259 65.8374 62.4333 65.6663C62.4382 65.4911 62.4432 65.32 62.4432 65.1551C62.4432 65.0624 62.4333 64.9634 62.4136 64.8583C62.3939 64.7491 62.3545 64.6357 62.2954 64.5203L62.1083 64.1905L61.8423 64.6522C61.8152 64.7017 61.7882 64.7552 61.7635 64.8088C61.7364 64.8583 61.7094 64.9119 61.6847 64.9655C61.5986 65.1757 61.5099 65.3839 61.4188 65.5921C61.3326 65.7961 61.2464 66.0023 61.1627 66.2104C61.01 66.5691 60.8623 66.9257 60.7195 67.2822C60.5742 67.6409 60.419 67.9913 60.2565 68.3376L60.2368 68.4035C60.1506 68.6014 60.0595 68.8034 59.961 69.0054C59.8675 69.2094 59.7591 69.4073 59.636 69.599C59.274 70.106 58.7988 70.3699 58.2078 70.3905C57.6291 70.407 57.1391 70.1844 56.7401 69.7227C56.5087 69.4712 56.3092 69.2032 56.1393 68.9229C55.9743 68.6385 55.8167 68.3499 55.6665 68.0572C55.4892 67.7398 55.3144 67.4183 55.1445 67.0926C54.9721 66.769 54.8047 66.4413 54.6421 66.1115C54.5683 65.959 54.487 65.7982 54.3959 65.6333C54.3097 65.4684 54.2309 65.3035 54.1595 65.1386C54.1201 65.0624 54.0635 64.982 53.9921 64.8995C53.9256 64.8171 53.8369 64.7305 53.7261 64.6357L53.4405 64.4296L53.3321 65.0397C53.3174 65.1448 53.3026 65.254 53.2829 65.3695C53.2632 65.4808 53.2459 65.588 53.2336 65.691C53.1795 66.0868 53.1277 66.4825 53.076 66.8782C53.0292 67.274 52.98 67.6697 52.9283 68.0655C52.8692 68.6261 52.8027 69.1847 52.7313 69.7392C52.6648 70.2895 52.5934 70.8419 52.5146 71.3963C52.4998 71.5839 52.4777 71.7715 52.4456 71.957C52.4186 72.1384 52.3718 72.3156 52.3078 72.4846C52.2093 72.8103 52.0147 73.0679 51.7266 73.2596C51.436 73.4472 51.111 73.5338 50.7515 73.5235C50.3698 73.5132 50.0448 73.3998 49.7764 73.1854C49.5055 72.9711 49.3454 72.7052 49.2937 72.3857C49.1952 71.7385 49.1952 71.1449 49.2937 70.6048C49.7468 68.286 50.2541 65.9219 50.8204 63.5144C50.9436 62.96 51.1775 62.4179 51.5198 61.8902C51.835 61.4285 52.2487 61.1606 52.7608 61.0822C52.8396 61.0781 52.9135 61.074 52.9874 61.074C53.4011 61.074 53.7901 61.21 54.1595 61.478C54.7357 61.9232 55.3439 62.556 55.9817 63.3743C56.1836 63.6278 56.3708 63.8937 56.5432 64.174C56.7205 64.4502 56.9027 64.7305 57.0947 65.015C57.1662 65.1469 57.2425 65.2788 57.3213 65.4107C57.405 65.5426 57.4937 65.6786 57.5872 65.8147L57.7941 66.128L57.9615 65.7982C58.0206 65.6725 58.0797 65.5467 58.1388 65.4189C58.1979 65.2932 58.257 65.1675 58.3161 65.0397C58.4392 64.7594 58.5648 64.4873 58.6904 64.2235C58.8209 63.9596 58.9563 63.6958 59.0942 63.432C59.4021 62.8548 59.7763 62.2612 60.2171 61.6511C60.4338 61.3502 60.7096 61.0657 61.0445 60.8019C61.6355 60.3526 62.2462 60.1794 62.8766 60.2825C63.5069 60.3876 63.9822 60.7504 64.3048 61.3708C64.881 62.4323 65.2651 63.7453 65.4572 65.3118L65.5655 66.2681C65.6567 66.9009 65.7379 67.5461 65.8118 68.2056C65.8906 68.8611 65.9522 69.5083 65.9989 70.1514Z" fill="#593118"/>
<path d="M81.1456 70.9347C81.1579 71.0131 81.1752 71.0811 81.1949 71.1409C81.1875 71.5325 81.0865 71.8582 80.8895 72.122C80.6925 72.3858 80.4192 72.5589 80.072 72.6414C79.7174 72.7362 79.3751 72.7238 79.0476 72.6084C78.725 72.493 78.4616 72.2992 78.2596 72.023C78.0479 71.7221 77.8681 71.3449 77.7179 70.8935C77.6637 70.7245 77.5751 70.5699 77.452 70.4318C77.3264 70.2958 77.0998 70.2216 76.7723 70.2092C76.4103 70.2051 76.0459 70.1968 75.679 70.1845C75.317 70.1742 74.9526 70.1639 74.5857 70.1515C74.1129 70.1309 73.6302 70.1103 73.1378 70.0938C72.6502 70.0773 72.1626 70.0649 71.6701 70.0526C71.5446 70.0526 71.4067 70.1 71.2564 70.1927C71.1038 70.2814 70.9905 70.372 70.9117 70.4648C70.8132 70.6132 70.7147 70.7657 70.6162 70.9183C70.5226 71.0667 70.434 71.2151 70.3503 71.3635C70.2641 71.5119 70.173 71.6665 70.0745 71.8252C69.9809 71.9798 69.8799 72.1302 69.7691 72.2786C69.3284 72.9217 68.794 73.1278 68.1636 72.897C67.9125 72.8104 67.7105 72.6393 67.5529 72.3858C67.3953 72.1343 67.3781 71.8396 67.5037 71.5036C67.942 70.3617 68.5084 69.0632 69.1978 67.6121C69.6362 66.6887 70.1927 65.6478 70.8625 64.4874C71.0447 64.1638 71.2515 63.8196 71.483 63.4568C71.7194 63.0941 71.9755 62.7395 72.2513 62.3933C72.5394 62.047 72.9605 61.7419 73.512 61.4781C73.9257 61.2699 74.3222 61.1648 74.7039 61.1648C75.3663 61.1648 75.9179 61.476 76.3586 62.0964C77.2254 63.3331 78.0725 64.6234 78.8999 65.9632C79.7273 67.305 80.3995 68.7169 80.9191 70.201C80.9634 70.3329 81.0077 70.4627 81.0471 70.5885C81.0865 70.7163 81.1185 70.8317 81.1456 70.9347ZM72.7832 67.3895H76.2995L74.2902 63.9433L72.7832 67.3895Z" fill="#593118"/>
<path d="M92.8576 70.2586C93.0669 70.3534 93.2663 70.4729 93.4584 70.6213C93.648 70.7697 93.7859 70.949 93.8721 71.1572C93.9558 71.3675 93.9435 71.6024 93.8327 71.8663C93.7071 72.2125 93.451 72.4723 93.0644 72.6413C92.6753 72.8123 92.269 72.8474 91.843 72.7484C91.5279 72.6784 91.2225 72.5753 90.927 72.4434C90.6315 72.3115 90.3385 72.1775 90.0504 72.0394C89.6613 71.8539 89.2723 71.6601 88.8783 71.4623C88.4892 71.2603 88.11 71.0645 87.7357 70.8769C87.5313 70.7738 87.3318 70.6708 87.1349 70.5719C86.9428 70.4688 86.7458 70.3637 86.5439 70.2586C86.4848 70.2256 86.4207 70.1988 86.3567 70.1761C86.2976 70.1493 86.2287 70.1184 86.1499 70.0854C86.0514 70.0524 85.9627 70.0174 85.8839 69.9782L85.6081 69.8628L85.5096 70.778C85.4702 71.0088 85.4358 71.2376 85.4111 71.4623C85.3914 71.6828 85.3668 71.8972 85.3422 72.1054C85.2757 72.497 85.1255 72.7959 84.8891 73.004C84.6527 73.2143 84.3498 73.3132 83.9829 73.3008C83.6209 73.2905 83.323 73.1751 83.0866 72.9546C82.8551 72.7361 82.7222 72.4352 82.6828 72.0559C82.4316 69.2527 82.6852 66.1939 83.4412 62.8796C83.5397 62.4302 83.7268 62.1355 84.0026 61.9974C84.1405 61.9376 84.303 61.9067 84.4951 61.9067C84.7167 61.9067 84.9802 61.9479 85.2831 62.0304C85.4062 62.0757 85.5417 62.084 85.6869 62.0551C85.8298 62.0283 85.9356 62.0036 86.0021 61.9809C87.354 61.5419 88.8216 61.478 90.405 61.7913C92.0844 62.1334 93.1087 63.0238 93.4781 64.4625C93.8179 65.7776 93.3033 66.8782 91.9317 67.7687C91.7667 67.8635 91.5968 67.9583 91.4195 68.0572C91.2471 68.152 91.06 68.251 90.8581 68.354C90.7719 68.3994 90.6758 68.4488 90.5724 68.5024C90.4739 68.5519 90.3754 68.6014 90.2769 68.6508L89.9913 68.791L90.2769 68.9394C90.4148 69.0115 90.5527 69.0857 90.6906 69.162C90.8285 69.2342 90.959 69.3001 91.0846 69.3599C91.385 69.531 91.6805 69.6897 91.9711 69.8381C92.2592 69.9824 92.5547 70.1225 92.8576 70.2586ZM86.0021 66.6309C87.5584 66.4557 88.9078 66.0352 90.0504 65.3695C90.437 65.1386 90.6069 64.8665 90.5626 64.5532C90.5084 64.2626 90.2819 64.0586 89.8829 63.9431C88.6222 63.5927 87.5091 63.6917 86.5439 64.2399C86.1548 64.4502 85.9283 64.6996 85.8642 64.9902C85.8051 65.2767 85.7805 65.5632 85.7953 65.8476C85.7953 65.9528 85.7953 66.0538 85.7953 66.1527C85.7953 66.2516 85.7879 66.3506 85.7756 66.4495L85.7362 66.6639L86.0021 66.6309Z" fill="#593118"/>
<path d="M106.001 70.7616C106.376 71.0254 106.612 71.3284 106.71 71.6685C106.814 72.0107 106.76 72.3281 106.543 72.6249C106.331 72.9382 106.023 73.1361 105.617 73.2185C105.208 73.2968 104.76 73.2556 104.268 73.0949C103.327 72.7713 102.426 72.1879 101.559 71.347L100.968 70.7781C100.658 70.4772 100.347 70.1721 100.032 69.8629C99.7171 69.5496 99.4019 69.2425 99.0867 68.9395C99.0596 68.9066 99.0325 68.8736 99.0079 68.8406C98.9882 68.8076 98.9636 68.7726 98.939 68.7334C98.9119 68.6798 98.8848 68.6407 98.8602 68.618L98.7518 68.4613L98.3184 68.7169V69.4919C98.3184 69.7949 98.3184 70.0938 98.3184 70.3906C98.3184 70.6833 98.3184 70.9801 98.3184 71.281V71.38C98.3184 71.5078 98.3135 71.6417 98.3086 71.7839C98.3012 71.9282 98.284 72.0601 98.2593 72.1797C98.1928 72.4559 98.0525 72.6826 97.8358 72.864C97.624 73.0413 97.3729 73.1402 97.0774 73.1608C96.7745 73.1938 96.4913 73.1484 96.2303 73.0207C95.9742 72.8949 95.7969 72.7156 95.6984 72.4847C95.4472 71.9468 95.3241 71.4624 95.3241 71.0337C95.3241 69.7929 95.329 68.5479 95.3438 67.2988C95.3635 66.0457 95.3857 64.809 95.4127 63.5887V63.4321C95.4127 63.1909 95.4743 62.9189 95.5999 62.6159C95.7772 62.1665 96.1047 61.946 96.5849 61.9563C97.07 61.9687 97.3729 62.183 97.491 62.5994C97.5625 62.8529 97.6216 63.1085 97.6683 63.3661C97.7201 63.6258 97.7668 63.8835 97.8062 64.1411L97.885 64.5204C97.9097 64.6585 97.9294 64.7925 97.9441 64.9244C97.9638 65.0563 97.9786 65.1965 97.9934 65.3449C98.018 65.4891 98.0377 65.6293 98.0525 65.7653L98.0919 66.0704L98.5056 65.8148C98.577 65.7715 98.6336 65.7365 98.673 65.7076L103.509 62.047C103.534 62.0264 103.588 61.9955 103.667 61.9563L103.706 61.9398C104.093 61.7254 104.467 61.6244 104.829 61.6347C105.196 61.6471 105.492 61.7728 105.716 62.014C105.952 62.2675 106.033 62.5499 105.962 62.8632C105.895 63.1724 105.696 63.4465 105.361 63.6877C104.979 63.9515 104.593 64.2153 104.199 64.4792C103.805 64.7389 103.413 64.9986 103.027 65.2624C102.822 65.3902 102.618 65.518 102.416 65.6499C102.219 65.7818 102.017 65.9179 101.815 66.0539C101.677 66.1363 101.544 66.225 101.421 66.3177C101.296 66.4125 101.165 66.5074 101.027 66.6063L100.466 66.9938L100.761 67.2329C100.813 67.2659 100.855 67.2988 100.889 67.3318C100.929 67.3607 100.968 67.3854 101.007 67.406C101.268 67.5874 101.529 67.7667 101.786 67.9419C102.047 68.113 102.31 68.2861 102.574 68.4613C103.15 68.8406 103.726 69.224 104.297 69.6074C104.869 69.9928 105.435 70.3782 106.001 70.7616Z" fill="#593118"/>
<path d="M115.83 70.6544C116.052 70.6441 116.296 70.675 116.559 70.7451C116.828 70.8111 117.037 70.9822 117.189 71.2563C117.426 71.6747 117.318 72.089 116.864 72.5012C116.589 72.7548 116.264 72.9588 115.889 73.1113C114.279 73.7647 112.521 73.9317 110.61 73.6143C109.492 73.4288 108.768 72.8207 108.433 71.7922C108.216 71.1388 108.123 70.4854 108.157 69.83C108.197 69.1704 108.268 68.552 108.374 67.9749C108.458 67.4926 108.551 67.0082 108.65 66.5238C108.753 66.0415 108.857 65.5633 108.955 65.0893C109.007 64.8584 109.054 64.6317 109.093 64.405C109.137 64.1803 109.187 63.9515 109.241 63.7206L109.26 63.6547C109.273 63.5949 109.283 63.531 109.29 63.4651C109.302 63.395 109.3 63.3208 109.28 63.2425C109.142 62.6653 109.44 62.2098 110.176 61.8738C110.314 61.8141 110.455 61.7564 110.6 61.7007C110.743 61.6471 110.891 61.61 111.043 61.5935L111.851 61.4946C112.427 61.4348 113.016 61.3709 113.614 61.305C114.21 61.2349 114.806 61.1875 115.397 61.1648C115.449 61.1648 115.498 61.1648 115.545 61.1648C116.136 61.1648 116.613 61.3091 116.983 61.5935C117.303 61.8367 117.47 62.1356 117.485 62.4922C117.497 62.8879 117.318 63.2177 116.943 63.4816C116.574 63.7454 116.091 63.8938 115.495 63.9268C115.101 63.9433 114.71 63.9494 114.323 63.9433C113.934 63.9329 113.545 63.9165 113.151 63.8938L112.668 63.8773C112.425 63.867 112.235 63.8649 112.097 63.8691C111.959 63.8752 111.846 63.9144 111.762 63.9845C111.676 64.0504 111.627 64.1411 111.615 64.2566C111.6 64.372 111.595 64.5286 111.595 64.7265C111.595 64.9244 111.595 65.1264 111.595 65.3284C111.595 65.5262 111.595 65.7241 111.595 65.922V66.7135L111.841 66.6805C111.979 66.6599 112.112 66.6393 112.245 66.6228C112.375 66.6022 112.511 66.5733 112.649 66.5403C112.937 66.497 113.222 66.4558 113.506 66.4167C113.786 66.3734 114.067 66.3404 114.343 66.3177C115.045 66.2683 115.697 66.3012 116.303 66.4167C116.84 66.5115 117.13 66.7877 117.17 67.2494C117.194 67.5132 117.125 67.7234 116.963 67.876C116.798 68.0244 116.628 68.1377 116.451 68.214C116.01 68.4016 115.584 68.5108 115.17 68.5438C114.769 68.5768 114.358 68.6015 113.939 68.618C113.518 68.6304 113.094 68.6468 112.668 68.6675C112.491 68.6675 112.309 68.6736 112.127 68.6839C111.942 68.6963 111.757 68.7004 111.575 68.7004L111.388 68.7169V68.8736C111.388 68.9457 111.388 69.022 111.388 69.1044C111.388 69.1827 111.388 69.257 111.388 69.327C111.388 69.5538 111.388 69.7784 111.388 70.0031C111.388 70.2298 111.393 70.4524 111.408 70.6709C111.408 70.7431 111.432 70.809 111.486 70.8688C111.546 70.9244 111.595 70.9677 111.634 71.0007C111.679 71.0337 111.738 71.0708 111.812 71.1079C111.89 71.1409 111.974 71.1574 112.068 71.1574C112.769 71.1202 113.548 71.0419 114.402 70.9265C114.513 70.9162 114.621 70.8976 114.727 70.8688C114.83 70.842 114.936 70.8173 115.042 70.7946C115.18 70.7616 115.313 70.7348 115.446 70.7121C115.577 70.6853 115.705 70.6668 115.83 70.6544Z" fill="#593118"/>
<path d="M128.86 61.9233C129.259 62.0181 129.572 62.1871 129.796 62.4344C130.025 62.6818 130.121 62.958 130.081 63.2589C130.047 63.5784 129.894 63.8443 129.618 64.0586C129.348 64.273 129.008 64.3926 128.594 64.4132C128.397 64.4255 128.195 64.4297 127.993 64.4297C127.796 64.4297 127.594 64.4297 127.392 64.4297C127.294 64.4297 127.195 64.4297 127.097 64.4297C127.003 64.4297 126.91 64.4297 126.811 64.4297H125.078L125.117 64.6193C125.137 64.8172 125.166 65.013 125.206 65.2047C125.245 65.3922 125.277 65.5798 125.304 65.7653C125.376 66.1899 125.442 66.6042 125.501 67.0102C125.565 67.4122 125.624 67.8141 125.678 68.214C125.743 68.6551 125.802 69.125 125.856 69.6238C125.915 70.1247 125.957 70.6358 125.984 71.1573C125.989 71.5366 125.9 71.9385 125.718 72.361C125.467 72.8846 124.994 73.1505 124.3 73.1608C123.595 73.1505 123.127 72.8866 122.891 72.3693C122.667 71.8705 122.556 71.3717 122.556 70.877C122.556 70.1844 122.559 69.496 122.566 68.8076C122.578 68.115 122.598 67.4287 122.625 66.7464C122.625 66.4723 122.628 66.2002 122.635 65.9302C122.64 65.656 122.65 65.3757 122.664 65.0892C122.664 65.0459 122.657 64.9717 122.645 64.8666L122.625 64.6028L122.005 64.5533C121.793 64.5327 121.581 64.5162 121.364 64.5039C121.153 64.4874 120.941 64.4688 120.724 64.4461C120.611 64.4358 120.507 64.4255 120.409 64.4132C120.315 64.4029 120.222 64.3864 120.123 64.3637C119.32 64.205 118.907 63.8587 118.882 63.3249C118.855 62.7704 119.256 62.3912 120.084 62.1871H120.143C120.182 62.1665 120.204 62.1541 120.212 62.1541C120.618 62.1376 121.022 62.1129 121.423 62.0799C121.822 62.0469 122.216 62.0119 122.605 61.9727C123.248 61.9191 123.891 61.8656 124.536 61.8161C125.186 61.7625 125.829 61.7336 126.466 61.7336C126.794 61.7336 127.119 61.7419 127.442 61.7584C127.762 61.7749 128.084 61.8037 128.407 61.8408C128.569 61.8635 128.722 61.8903 128.86 61.9233Z" fill="#593118"/>
</g>
<defs>
<clipPath id="clip0_1_3470">
<rect width="139" height="93" fill="white"/>
</clipPath>
</defs>
</svg>
